<?xml version="1.0" encoding="UTF-8"?>
<svg width="17px" height="21px" viewBox="0 0 17 21" version="1.1" xmlns="http://www.w3.org/2000/svg" xmlns:xlink="http://www.w3.org/1999/xlink">
    <!-- Generator: Sketch 49.1 (51147) - http://www.bohemiancoding.com/sketch -->
    <title>if_1-02_511559</title>
    <desc>Created with Sketch.</desc>
    <defs></defs>
    <g id="final-WF" stroke="none" stroke-width="1" fill="none" fill-rule="evenodd">
        <g id="003_resultado-busqueda" transform="translate(-883.000000, -661.000000)" fill="#1697F3" fill-rule="nonzero">
            <g id="if_1-02_511559" transform="translate(884.000000, 658.000000)">
                <path d="M13.6821892,23.7395676 L1.68227027,23.7395676 C0.810486486,23.7395676 0.101189189,23.0302703 0.101189189,22.1584865 L0.101189189,5.0742973 C0.101189189,4.20251351 0.810486486,3.49321622 1.68227027,3.49321622 L8.66967568,3.49321622 C9.43637838,3.49321622 10.4616486,3.91791892 11.0038378,4.46010811 L14.2966216,7.75289189 C14.8388108,8.29508108 15.2635135,9.32035135 15.2635135,10.0870541 L15.2635135,22.1584865 C15.2632703,23.0302703 14.553973,23.7395676 13.6821892,23.7395676 Z M1.68227027,4.22294595 C1.21281081,4.22294595 0.830918919,4.60483784 0.830918919,5.0742973 L0.830918919,22.1584865 C0.830918919,22.6279459 1.21281081,23.0098378 1.68227027,23.0098378 L13.6821892,23.0098378 C14.1516486,23.0098378 14.5335405,22.6279459 14.5335405,22.1584865 L14.5335405,10.0870541 C14.5335405,9.51956757 14.1818108,8.66991892 13.7804595,8.26881081 L10.4876757,4.97602703 C10.0865676,4.57491892 9.23691892,4.22294595 8.66943243,4.22294595 L1.68227027,4.22294595 Z" id="Shape" stroke="#1697F3" stroke-width="0.5"></path>
                <path d="M13.6821892,9.2357027 L11.1021081,9.2357027 C10.2303243,9.2357027 9.52102703,8.52640541 9.52102703,7.65462162 L9.52102703,5.0742973 C9.52102703,4.34140541 9.91435135,4.08137838 10.2514865,4.08137838 C10.4995946,4.08137838 10.7525676,4.20883784 11.0038378,4.46010811 L14.2966216,7.75289189 C14.7553784,8.21164865 14.6996757,8.57943243 14.625973,8.75797297 C14.5515405,8.93627027 14.3309189,9.2357027 13.6821892,9.2357027 Z M10.2852973,4.82278378 C10.2702162,4.8617027 10.2505135,4.93856757 10.2505135,5.0742973 L10.2505135,7.65462162 C10.2505135,8.12408108 10.6324054,8.50597297 11.1018649,8.50597297 L13.6819459,8.50597297 C13.8176757,8.50597297 13.8945405,8.48627027 13.9334595,8.47118919 C13.9166757,8.433 13.8762973,8.36464865 13.7802162,8.26881081 L10.4876757,4.97602703 C10.3918378,4.88018919 10.3234865,4.83956757 10.2852973,4.82278378 Z" id="Shape" stroke="#1697F3" stroke-width="0.5"></path>
                <g id="Group" transform="translate(3.405405, 17.756757)">
                    <path d="M1.41445946,2.19745946 L0.788108108,2.19745946 L0.788108108,3.15316216 C0.788108108,3.28986486 0.756,3.39348649 0.691540541,3.46402703 C0.627081081,3.53456757 0.545594595,3.57008108 0.447567568,3.57008108 C0.344675676,3.57008108 0.26172973,3.53505405 0.198972973,3.46524324 C0.135972973,3.39518919 0.104351351,3.29302703 0.104351351,3.15778378 L0.104351351,0.555567568 C0.104351351,0.405 0.139135135,0.297486486 0.207972973,0.233027027 C0.277054054,0.168567568 0.386756757,0.136459459 0.537324324,0.136459459 L1.41445946,0.136459459 C1.67375676,0.136459459 1.8737027,0.156405405 2.01332432,0.196297297 C2.15124324,0.23472973 2.27091892,0.298459459 2.37137838,0.387486486 C2.47208108,0.476513514 2.54845946,0.585486486 2.60051351,0.714405405 C2.65281081,0.843324324 2.67883784,0.988540541 2.67883784,1.14981081 C2.67883784,1.49375676 2.57278378,1.75427027 2.36091892,1.93159459 C2.1492973,2.10867568 1.83381081,2.19745946 1.41445946,2.19745946 Z M1.24881081,0.649945946 L0.788108108,0.649945946 L0.788108108,1.68154054 L1.24881081,1.68154054 C1.41008108,1.68154054 1.54483784,1.66475676 1.65308108,1.63094595 C1.76108108,1.59713514 1.84378378,1.54191892 1.9007027,1.46505405 C1.95737838,1.38843243 1.98583784,1.28772973 1.98583784,1.16343243 C1.98583784,1.01456757 1.94205405,0.893189189 1.85472973,0.799540541 C1.75621622,0.699810811 1.55432432,0.649945946 1.24881081,0.649945946 Z" id="Shape"></path>
                    <path d="M3.67394595,0.136459459 L4.56518919,0.136459459 C4.79675676,0.136459459 4.99597297,0.157864865 5.16162162,0.200918919 C5.32727027,0.243972973 5.47783784,0.324486486 5.61283784,0.442702703 C5.96432432,0.743594595 6.14018919,1.20113514 6.14018919,1.81508108 C6.14018919,2.0177027 6.12243243,2.20281081 6.08716216,2.37016216 C6.05164865,2.53751351 5.99740541,2.68832432 5.92345946,2.82259459 C5.84975676,2.95686486 5.75562162,3.07702703 5.64032432,3.18283784 C5.54983784,3.26432432 5.45083784,3.32951351 5.34308108,3.37864865 C5.23581081,3.42778378 5.12027027,3.46232432 4.99645946,3.48227027 C4.87289189,3.50221622 4.73375676,3.51218919 4.57856757,3.51218919 L3.68756757,3.51218919 C3.56327027,3.51218919 3.46962162,3.49345946 3.40662162,3.45575676 C3.34362162,3.41805405 3.30251351,3.36502703 3.28354054,3.29691892 C3.26432432,3.22856757 3.25483784,3.14002703 3.25483784,3.03105405 L3.25483784,0.555567568 C3.25483784,0.408162162 3.28767568,0.301378378 3.35359459,0.235459459 C3.41975676,0.169297297 3.5262973,0.136459459 3.67394595,0.136459459 Z M3.93859459,0.677432432 L3.93859459,2.96878378 L4.4567027,2.96878378 C4.5702973,2.96878378 4.65932432,2.96562162 4.72402703,2.95954054 C4.78848649,2.95345946 4.85513514,2.93813514 4.92421622,2.91356757 C4.9932973,2.889 5.05313514,2.85445946 5.10372973,2.80994595 C5.33237838,2.61656757 5.44694595,2.28332432 5.44694595,1.8107027 C5.44694595,1.47745946 5.39659459,1.22789189 5.29613514,1.06224324 C5.19543243,0.896351351 5.07137838,0.791027027 4.92421622,0.745540541 C4.77705405,0.700297297 4.59875676,0.677675676 4.39005405,0.677675676 L3.93859459,0.677675676 L3.93859459,0.677432432 Z" id="Shape"></path>
                    <path d="M8.75845946,0.663810811 L7.41137838,0.663810811 L7.41137838,1.52732432 L8.53759459,1.52732432 C8.64194595,1.52732432 8.71978378,1.55067568 8.77135135,1.59762162 C8.82267568,1.64456757 8.84845946,1.70708108 8.84845946,1.78516216 C8.84845946,1.86348649 8.82243243,1.92575676 8.77013514,1.97172973 C8.71783784,2.0177027 8.64048649,2.04081081 8.53759459,2.04081081 L7.41137838,2.04081081 L7.41137838,3.15316216 C7.41137838,3.29448649 7.37951351,3.39932432 7.31578378,3.46743243 C7.25205405,3.53554054 7.17008108,3.56983784 7.07035135,3.56983784 C6.96916216,3.56983784 6.88645946,3.5352973 6.82272973,3.46621622 C6.759,3.39713514 6.72713514,3.29278378 6.72713514,3.15291892 L6.72713514,0.555567568 C6.72713514,0.457297297 6.74172973,0.377027027 6.77091892,0.314756757 C6.80010811,0.25272973 6.84583784,0.207486486 6.90786486,0.179027027 C6.97013514,0.150567568 7.04943243,0.136459459 7.146,0.136459459 L8.75797297,0.136459459 C8.86694595,0.136459459 8.94794595,0.160540541 9.00097297,0.208945946 C9.054,0.257351351 9.08051351,0.320594595 9.08051351,0.398918919 C9.08051351,0.478702703 9.054,0.542918919 9.00097297,0.591324324 C8.94794595,0.63972973 8.86743243,0.663810811 8.75845946,0.663810811 Z" id="Shape"></path>
                </g>
                <path d="M3.02254054,16.7832973 C2.66618919,16.7832973 2.37940541,16.6018378 2.25583784,16.2977838 C2.04981081,15.7923243 2.34681081,15.0971351 3.0707027,14.3902703 C3.63745946,13.8366486 4.42897297,13.3810541 5.42456757,13.0346757 C5.95410811,12.051973 6.44132432,10.9997027 6.78308108,10.1001892 C6.02635135,8.92313514 5.88672973,7.47 6.15137838,6.65805405 C6.32262162,6.13289189 6.61913514,5.93537838 6.83732432,5.86216216 C7.14186486,5.75975676 7.45272973,5.83637838 7.66945946,6.06940541 C7.99613514,6.42064865 8.11581081,7.128 8.03578378,8.23183784 C8.00391892,8.67186486 7.85772973,9.2627027 7.60037838,9.99072973 C7.61156757,10.0048378 7.623,10.0187027 7.63443243,10.0325676 C7.80616216,10.2424865 7.98932432,10.4733243 8.18124324,10.7153514 C8.59086486,11.2317568 9.05108108,11.8118919 9.51908108,12.3319459 C9.65748649,12.3275676 9.79078378,12.3256216 9.91945946,12.3256216 C11.573027,12.3256216 12.6834324,12.6715135 13.0461081,13.2995676 C13.2008108,13.5673784 13.203973,13.8687568 13.0551081,14.1265946 C12.8541892,14.4746757 12.4195135,14.6824054 11.8921622,14.6824054 L11.8919189,14.6824054 C11.7642162,14.6824054 11.6321351,14.67 11.4995676,14.6454324 C10.835027,14.5228378 10.1055405,14.0227297 9.21210811,13.0752973 C8.9837027,13.0877027 8.74459459,13.1057027 8.49940541,13.1295405 C7.97278378,13.1801351 6.95651351,13.3127027 5.92759459,13.6369459 C5.48489189,14.4364865 4.53210811,16.0513784 3.82159459,16.5157297 C3.55281081,16.6908649 3.27697297,16.7832973 3.02254054,16.7832973 Z M4.83762162,14.0628649 C4.32802703,14.309027 3.90745946,14.5931351 3.5802973,14.9125135 C2.93740541,15.5405676 2.89556757,15.9341351 2.93156757,16.0224324 C2.94202703,16.047973 2.98702703,16.0533243 3.02254054,16.0533243 C3.13151351,16.0533243 3.27721622,15.9990811 3.42194595,15.9047027 C3.73962162,15.6972162 4.26405405,15.0085946 4.83762162,14.0628649 Z M10.2291081,13.059973 C10.7798108,13.5705405 11.241973,13.8558649 11.6316486,13.9278649 C11.7206757,13.9441622 11.8082432,13.9526757 11.8914324,13.9526757 C11.8916757,13.9526757 11.8916757,13.9526757 11.8916757,13.9526757 C12.1806486,13.9526757 12.3696486,13.8536757 12.4229189,13.7617297 C12.4326486,13.7444595 12.4465135,13.7211081 12.4136757,13.6644324 C12.2910811,13.4525676 11.6936757,13.1035135 10.2291081,13.059973 Z M7.29948649,10.7795676 C7.04481081,11.4056757 6.73467568,12.0823784 6.39754054,12.7481351 C7.23356757,12.5411351 7.99151351,12.4452973 8.42910811,12.4032162 C8.48602703,12.3978649 8.5427027,12.3925135 8.59889189,12.3876486 C8.25081081,11.9775405 7.91610811,11.5557568 7.60937838,11.169 C7.50332432,11.0352162 7.3997027,10.9048378 7.29948649,10.7795676 Z M7.10489189,6.54713514 C7.09954054,6.54713514 7.08762162,6.54810811 7.06937838,6.55418919 C6.98716216,6.58167568 6.90324324,6.70524324 6.84486486,6.88475676 C6.66972973,7.42183784 6.7392973,8.32548649 7.10391892,9.15810811 C7.21994595,8.76356757 7.28927027,8.43202703 7.30751351,8.17954054 C7.39654054,6.95140541 7.19781081,6.63445946 7.13456757,6.56683784 C7.11681081,6.54713514 7.11024324,6.54713514 7.10489189,6.54713514 Z" id="Shape"></path>
            </g>
        </g>
    </g>
</svg>