<?xml version="1.0" encoding="UTF-8"?>
<svg width="21px" height="20px" viewBox="0 0 21 20" version="1.1" xmlns="http://www.w3.org/2000/svg" xmlns:xlink="http://www.w3.org/1999/xlink">
    <!-- Generator: Sketch 49.1 (51147) - http://www.bohemiancoding.com/sketch -->
    <title>Fill 35</title>
    <desc>Created with Sketch.</desc>
    <defs></defs>
    <g id="final-WF" stroke="none" stroke-width="1" fill="none" fill-rule="evenodd">
        <g id="003_resultado-busqueda" transform="translate(-1021.000000, -662.000000)" fill="#1697F3">
            <path d="M1040.95718,665.580339 L1037.73373,662.399904 C1037.46319,662.133195 1037.09037,662 1036.71787,662 C1036.34155,662 1035.96905,662.133195 1035.69852,662.399904 L1034.68266,663.403649 L1033.80032,664.274516 L1039.09053,669.458615 L1039.97287,668.588067 L1040.98873,667.584322 C1041.53361,667.050904 1041.53361,666.148809 1040.95718,665.580339 Z M1040.07484,666.717597 L1039.05516,667.717518 L1035.59623,664.274516 L1036.61591,663.270453 C1036.64745,663.239226 1036.71787,663.203856 1036.74942,663.203856 C1036.78447,663.203856 1036.81984,663.203856 1036.88676,663.270453 L1040.10639,666.447064 C1040.14144,666.482434 1040.17681,666.549032 1040.17681,666.58026 C1040.14144,666.61563 1040.10639,666.682227 1040.07484,666.717597 Z M1037.09037,669.658727 L1028.78065,677.819645 L1027.56086,676.61547 L1035.90213,668.388274 L1035.01979,667.517725 L1026.67852,675.744922 L1025.32203,674.407871 L1033.66299,666.180355 L1032.78065,665.309806 L1023.7256,674.238987 C1023.659,674.305903 1023.62395,674.376324 1023.59241,674.474468 L1021.04736,681.164503 C1020.94539,681.39616 1021.01581,681.631323 1021.18469,681.799888 C1021.31789,681.933402 1021.45523,682 1021.62379,682 C1021.69421,682 1021.76113,682 1021.82773,681.96463 L1028.54134,679.760535 C1028.64331,679.725484 1028.71405,679.693938 1028.78065,679.623516 L1037.97271,670.560503 L1037.09037,669.658727 Z M1024.57671,675.411615 L1027.86294,678.654824 L1024.23544,679.858679 L1023.21991,678.890305 L1024.57671,675.411615 Z" id="Fill-35"></path>
        </g>
    </g>
</svg>