<?xml version="1.0" encoding="UTF-8"?>
<svg width="18px" height="18px" viewBox="0 0 18 18" version="1.1" xmlns="http://www.w3.org/2000/svg" xmlns:xlink="http://www.w3.org/1999/xlink">
    <!-- Generator: Sketch 49.1 (51147) - http://www.bohemiancoding.com/sketch -->
    <title>Shape</title>
    <desc>Created with Sketch.</desc>
    <defs></defs>
    <g id="final-WF" stroke="none" stroke-width="1" fill="none" fill-rule="evenodd">
        <g id="006_resultado-cliente" transform="translate(-479.000000, -365.000000)" fill="#1697F3" fill-rule="nonzero" stroke="#FFFFFF">
            <g id="Group-8" transform="translate(161.000000, 360.000000)">
                <g id="Group-7" transform="translate(319.000000, 6.000000)">
                    <path d="M15.0072727,3.90254545 C14.6676364,3.34109091 14.2487273,2.79127273 13.736,2.28145455 C13.2174545,1.76654545 12.6581818,1.34472727 12.0858182,1.00581818 L13.0909091,0 C13.0909091,0 14.5454545,0 15.2727273,0.727272727 C16,1.45454545 16,2.90909091 16,2.90909091 L15.0072727,3.90254545 Z M6.54545455,12.3636364 L3.63636364,12.3636364 L3.63636364,9.45454545 L3.98545455,9.10545455 C4.57672727,9.38545455 5.16436364,9.77890909 5.69309091,10.3069091 C6.22254545,10.8370909 6.61527273,11.4232727 6.89454545,12.0145455 L6.54545455,12.3636364 Z M14.1672727,4.74181818 L7.73381818,11.1745455 C7.39418182,10.6138182 6.97527273,10.0625455 6.46254545,9.55345455 C5.94472727,9.03781818 5.38472727,8.61672727 4.81236364,8.27781818 L11.2581818,1.83272727 C11.8494545,2.11127273 12.4370909,2.50472727 12.9658182,3.03345455 C13.496,3.56290909 13.8887273,4.15054545 14.1672727,4.74181818 Z M2.18181818,2.18181818 L2.18181818,13.8181818 L13.8181818,13.8181818 L13.8181818,8.72727273 L16,6.51781818 L16,14.5454545 C16,15.3490909 15.3483636,16 14.5454545,16 L1.45454545,16 C0.651636364,16 0,15.3490909 0,14.5454545 L0,1.45454545 C0,0.651636364 0.651636364,0 1.45454545,0 L9.46181818,0 L7.27927273,2.18181818 L2.18181818,2.18181818 Z" id="Shape"></path>
                </g>
            </g>
        </g>
    </g>
</svg>