<?xml version="1.0" encoding="UTF-8"?>
<svg width="17px" height="21px" viewBox="0 0 17 21" version="1.1" xmlns="http://www.w3.org/2000/svg" xmlns:xlink="http://www.w3.org/1999/xlink">
    <!-- Generator: Sketch 49.1 (51147) - http://www.bohemiancoding.com/sketch -->
    <title>Group 7</title>
    <desc>Created with Sketch.</desc>
    <defs></defs>
    <g id="final-WF" stroke="none" stroke-width="1" fill="none" fill-rule="evenodd">
        <g id="003_resultado-busqueda" transform="translate(-955.000000, -579.000000)" stroke="#1697F3">
            <g id="Group-7" transform="translate(956.000000, 576.000000)">
                <g id="if_1-02_511559" fill="#1697F3" fill-rule="nonzero" stroke-width="0.5">
                    <path d="M13.6821892,23.7395676 L1.68227027,23.7395676 C0.810486486,23.7395676 0.101189189,23.0302703 0.101189189,22.1584865 L0.101189189,5.0742973 C0.101189189,4.20251351 0.810486486,3.49321622 1.68227027,3.49321622 L8.66967568,3.49321622 C9.43637838,3.49321622 10.4616486,3.91791892 11.0038378,4.46010811 L14.2966216,7.75289189 C14.8388108,8.29508108 15.2635135,9.32035135 15.2635135,10.0870541 L15.2635135,22.1584865 C15.2632703,23.0302703 14.553973,23.7395676 13.6821892,23.7395676 Z M1.68227027,4.22294595 C1.21281081,4.22294595 0.830918919,4.60483784 0.830918919,5.0742973 L0.830918919,22.1584865 C0.830918919,22.6279459 1.21281081,23.0098378 1.68227027,23.0098378 L13.6821892,23.0098378 C14.1516486,23.0098378 14.5335405,22.6279459 14.5335405,22.1584865 L14.5335405,10.0870541 C14.5335405,9.51956757 14.1818108,8.66991892 13.7804595,8.26881081 L10.4876757,4.97602703 C10.0865676,4.57491892 9.23691892,4.22294595 8.66943243,4.22294595 L1.68227027,4.22294595 Z" id="Shape"></path>
                    <path d="M13.6821892,9.2357027 L11.1021081,9.2357027 C10.2303243,9.2357027 9.52102703,8.52640541 9.52102703,7.65462162 L9.52102703,5.0742973 C9.52102703,4.34140541 9.91435135,4.08137838 10.2514865,4.08137838 C10.4995946,4.08137838 10.7525676,4.20883784 11.0038378,4.46010811 L14.2966216,7.75289189 C14.7553784,8.21164865 14.6996757,8.57943243 14.625973,8.75797297 C14.5515405,8.93627027 14.3309189,9.2357027 13.6821892,9.2357027 Z M10.2852973,4.82278378 C10.2702162,4.8617027 10.2505135,4.93856757 10.2505135,5.0742973 L10.2505135,7.65462162 C10.2505135,8.12408108 10.6324054,8.50597297 11.1018649,8.50597297 L13.6819459,8.50597297 C13.8176757,8.50597297 13.8945405,8.48627027 13.9334595,8.47118919 C13.9166757,8.433 13.8762973,8.36464865 13.7802162,8.26881081 L10.4876757,4.97602703 C10.3918378,4.88018919 10.3234865,4.83956757 10.2852973,4.82278378 Z" id="Shape"></path>
                </g>
                <path d="M4.5,12.5 L11.5,12.5" id="Line-2" stroke-linecap="square"></path>
                <path d="M4.5,15.5 L11.5,15.5" id="Line-2" stroke-linecap="square"></path>
                <path d="M4.5,18.5 L11.5,18.5" id="Line-2" stroke-linecap="square"></path>
            </g>
        </g>
    </g>
</svg>