<?xml version="1.0" encoding="UTF-8"?>
<svg width="23px" height="30px" viewBox="0 0 23 30" version="1.1" xmlns="http://www.w3.org/2000/svg" xmlns:xlink="http://www.w3.org/1999/xlink">
    <!-- Generator: Sketch 49.1 (51147) - http://www.bohemiancoding.com/sketch -->
    <title>Group 19</title>
    <desc>Created with Sketch.</desc>
    <defs>
        <polygon id="path-1" points="0.246988235 0.317435294 23.0470588 0.317435294 23.0470588 12.8824941 0.246988235 12.8824941"></polygon>
    </defs>
    <g id="Symbols" stroke="none" stroke-width="1" fill="none" fill-rule="evenodd">
        <g id="tit_Jubilacion_Dskt" transform="translate(-31.000000, -10.000000)">
            <g id="Group-19" transform="translate(31.000000, 10.000000)">
                <path d="M18.3176471,8.57643529 C18.3176471,12.2470235 15.3176471,15.2470235 11.6470588,15.2470235 C7.97647059,15.2470235 4.97647059,12.2470235 4.97647059,8.57643529 C4.97647059,4.90584706 7.97647059,1.90584706 11.6470588,1.90584706 C15.3529412,1.90584706 18.3176471,4.87055294 18.3176471,8.57643529" id="Fill-14" fill="#9C9FA2"></path>
                <path d="M15.7764,4.12934118 C15.7764,6.38816471 13.9411059,8.22345882 11.6822824,8.22345882 C9.42345882,8.22345882 7.55287059,6.38816471 7.55287059,4.12934118 C7.55287059,1.87051765 9.38816471,0.0352235294 11.6822824,0.0352235294 C13.9411059,-7.05882353e-05 15.7764,1.87051765 15.7764,4.12934118" id="Fill-16" fill="#9C9FA2"></path>
                <path d="M11.6469176,4.48228235 C11.6469176,7.65875294 14.2237412,10.2352235 17.4002118,10.2352235 C17.4351529,7.05875294 14.8590353,4.48228235 11.6469176,4.48228235" id="Fill-18" fill="#9C9FA2"></path>
                <path d="M5.89404706,10.2353294 L5.89404706,10.5529765 C6.74110588,11.1882706 7.76463529,11.5412118 8.89404706,11.5412118 C11.6822824,11.5412118 13.9411059,9.28238824 13.9411059,6.49415294 C13.9411059,5.89415294 13.8352235,5.32944706 13.6587529,4.80003529 C13.0234588,4.58827059 12.3881647,4.44709412 11.6822824,4.44709412 C8.47051765,4.48238824 5.89404706,7.05885882 5.89404706,10.2353294" id="Fill-20" fill="#9C9FA2"></path>
                <g id="Group-24" transform="translate(0.000000, 16.870588)">
                    <mask id="mask-2" fill="white">
                        <use xlink:href="#path-1"></use>
                    </mask>
                    <g id="Clip-23"></g>
                    <path d="M0.246988235,12.8824941 L4.41169412,12.8824941 C4.55287059,12.3530824 4.72934118,11.8236706 4.87087059,11.2586118 L5.04734118,12.8824941 L18.2469882,12.8824941 L18.4234588,11.2236706 C18.5999294,11.7880235 18.7411059,12.3530824 18.8822824,12.8824941 L23.0473412,12.8824941 C22.5179294,9.07037647 21.5293412,4.7292 19.6944,0.317435294 L14.3646353,0.317435294 L8.92969412,0.317435294 L3.59992941,0.317435294 L3.59992941,0.353082353 C1.76463529,4.7292 0.7764,9.07037647 0.246988235,12.8824941" id="Fill-22" fill="#00679E" mask="url(#mask-2)"></path>
                </g>
                <path d="M11.6469176,15.5647765 C14.8233882,15.5647765 17.3645647,12.9883059 17.3645647,9.84712941 C17.3645647,6.67065882 14.7880941,4.12948235 11.6469176,4.12948235 C8.47044706,4.12948235 5.92962353,6.70595294 5.92962353,9.84712941 C5.92962353,13.0236 8.50609412,15.5647765 11.6469176,15.5647765" id="Fill-25" fill="#D8DAD7"></path>
                <path d="M13.8707294,17.6117647 C13.7295529,17.4705882 13.6942588,17.2235294 13.8350824,17.0823529 C13.9766118,16.9411765 14.2236706,16.9058824 14.3644941,17.0470588 C14.5060235,17.1882353 14.5409647,17.4352941 14.4001412,17.5764706 C14.3295529,17.6470588 14.2236706,17.7176471 14.1174353,17.7176471 C14.0115529,17.7176471 13.9409647,17.6823529 13.8707294,17.6117647 M8.92955294,17.6470588 C8.78837647,17.5058824 8.78837647,17.2588235 8.96484706,17.1176471 C9.10602353,16.9764706 9.35272941,16.9764706 9.49425882,17.1529412 C9.63543529,17.2941176 9.63543529,17.5411765 9.45896471,17.6823529 C9.38837647,17.7529412 9.28249412,17.7882353 9.21190588,17.7882353 C9.10602353,17.7529412 8.99978824,17.7176471 8.92955294,17.6470588 M12.6707294,18.3176471 C12.5997882,18.1411765 12.6707294,17.8941176 12.8472,17.8235294 C13.0236706,17.7529412 13.2707294,17.8235294 13.3413176,18 C13.4115529,18.1764706 13.3413176,18.4235294 13.1648471,18.4941176 C13.1292,18.5294118 13.0586118,18.5294118 12.9883765,18.5294118 C12.8472,18.5294118 12.7413176,18.4588235 12.6707294,18.3176471 M10.1648471,18.5294118 C9.98837647,18.4588235 9.88214118,18.2117647 9.95272941,18.0352941 C10.0236706,17.8588235 10.2707294,17.7529412 10.4472,17.8235294 C10.6236706,17.8941176 10.7295529,18.1411765 10.6586118,18.3176471 C10.5880235,18.4588235 10.4472,18.5647059 10.3056706,18.5294118 C10.2707294,18.5647059 10.2001412,18.5294118 10.1648471,18.5294118 M11.6824941,18.8470588 C11.4703765,18.8470588 11.2939059,18.6705882 11.2939059,18.4588235 C11.2939059,18.2470588 11.4703765,18.0705882 11.6824941,18.0705882 C11.8939059,18.0705882 12.0703765,18.2470588 12.0703765,18.4588235 C12.0354353,18.6705882 11.8939059,18.8470588 11.6824941,18.8470588" id="Fill-27" fill="#FFFFFF"></path>
            </g>
        </g>
    </g>
</svg>