<?xml version="1.0" encoding="UTF-8"?>
<svg width="70px" height="70px" viewBox="0 0 70 70" version="1.1" xmlns="http://www.w3.org/2000/svg" xmlns:xlink="http://www.w3.org/1999/xlink">
    <!-- Generator: Sketch 49.1 (51147) - http://www.bohemiancoding.com/sketch -->
    <title>money</title>
    <desc>Created with Sketch.</desc>
    <defs></defs>
    <g id="mobile" stroke="none" stroke-width="1" fill="none" fill-rule="evenodd">
        <g id="009_Dskt" transform="translate(-444.000000, -162.000000)" fill="#CECCCF" fill-rule="nonzero">
            <g id="money" transform="translate(444.000000, 162.000000)">
                <path d="M14.6463654,0.0137524558 C9.06286837,0.0137524558 4.5108055,4.55206287 4.5108055,10.1355599 C4.5108055,15.7328094 9.06286837,20.2848723 14.6463654,20.2848723 C20.2436149,20.2848723 24.7819253,15.7328094 24.7819253,10.1493124 C24.7819253,4.55206287 20.2298625,0.0137524558 14.6463654,0.0137524558 Z M14.6463654,18.043222 C10.2868369,18.043222 6.7524558,14.5088409 6.7524558,10.1493124 C6.76620825,5.78978389 10.3005894,2.25540275 14.6463654,2.25540275 C18.9921415,2.25540275 22.540275,5.78978389 22.540275,10.1493124 C22.540275,14.4950884 19.0058939,18.043222 14.6463654,18.043222 Z" id="Shape"></path>
                <path d="M45.0667976,12.3909627 C36.6365422,12.3909627 29.1827112,16.6267191 24.6994106,23.0766208 C23.0628684,22.0039293 21.1237721,21.4125737 19.1434185,21.4125737 L10.1355599,21.4125737 C4.55206287,21.4125737 0,25.9646365 0,31.5481336 L0,49.5776031 L4.5108055,49.5776031 L4.5108055,69.8624754 L24.7956778,69.8624754 L24.7956778,51.4066798 C29.2789784,57.7878193 36.7053045,61.9685658 45.0805501,61.9685658 C58.7504912,61.9685658 69.8762279,50.8428291 69.8762279,37.172888 C69.8624754,23.5166994 58.7367387,12.3909627 45.0667976,12.3909627 Z M22.540275,67.6070727 L15.7740668,67.6070727 L15.7740668,51.8330059 L13.518664,51.8330059 L13.518664,67.6070727 L6.76620825,67.6070727 L6.76620825,47.3222004 L2.25540275,47.3222004 L2.25540275,31.5481336 C2.25540275,27.2023576 5.78978389,23.654224 10.1493124,23.654224 L19.1571709,23.654224 C20.7111984,23.654224 22.2102161,24.1355599 23.502947,24.9882122 C21.453831,28.5913556 20.2848723,32.7445972 20.2848723,37.172888 C20.2848723,40.8447937 21.0962672,44.3379175 22.540275,47.4872299 L22.540275,67.6070727 Z M45.0667976,59.7269155 C32.6345776,59.7269155 22.5265226,49.6188605 22.5265226,37.1866405 C22.5265226,24.7544204 32.6345776,14.6463654 45.0667976,14.6463654 C57.4990177,14.6463654 67.6070727,24.7544204 67.6070727,37.1866405 C67.6070727,49.6051081 57.4990177,59.7269155 45.0667976,59.7269155 Z" id="Shape"></path>
                <path d="M45.0667976,18.0294695 C34.5049116,18.0294695 25.9096267,26.6247544 25.9096267,37.1866405 C25.9096267,47.7485265 34.5049116,56.3438114 45.0667976,56.3438114 C55.6286837,56.3438114 64.2239686,47.7485265 64.2239686,37.1866405 C64.2239686,26.6247544 55.6286837,18.0294695 45.0667976,18.0294695 Z M45.0667976,54.0884086 C35.7426326,54.0884086 28.1650295,46.5108055 28.1650295,37.1866405 C28.1650295,27.8624754 35.7563851,20.2848723 45.0667976,20.2848723 C54.3772102,20.2848723 61.9685658,27.8624754 61.9685658,37.1866405 C61.9685658,46.5108055 54.3909627,54.0884086 45.0667976,54.0884086 Z" id="Shape"></path>
                <path d="M45.0667976,35.3988212 C43.5815324,35.3988212 42.3850688,34.1886051 42.3850688,32.7170923 C42.3850688,31.2318271 43.5952849,30.0353635 45.0667976,30.0353635 C45.8094303,30.0353635 46.5108055,30.3379175 47.0196464,30.8742633 C47.6935167,31.589391 48.8349705,31.6306483 49.5500982,30.956778 C50.2652259,30.2829077 50.3064833,29.1414538 49.632613,28.4263261 C48.8762279,27.6149312 47.913556,27.0373281 46.8546169,26.7210216 L46.8546169,25.4695481 C46.8546169,24.4793713 46.0569745,23.6817289 45.0667976,23.6817289 C44.0766208,23.6817289 43.2789784,24.4793713 43.2789784,25.4695481 L43.2789784,26.7072692 C40.6935167,27.4774067 38.7956778,29.8840864 38.7956778,32.7170923 C38.7956778,36.1689587 41.6149312,38.9882122 45.0667976,38.9882122 C46.5520629,38.9882122 47.7485265,40.1984283 47.7485265,41.6699411 C47.7485265,43.1552063 46.5383104,44.3516699 45.0667976,44.3516699 C44.324165,44.3516699 43.6227898,44.0491159 43.1139489,43.5127701 C42.4400786,42.7976424 41.2986248,42.7563851 40.5834971,43.4302554 C39.8683694,44.1041257 39.827112,45.2455796 40.5009823,45.9607073 C41.2573674,46.7721022 42.2200393,47.3497053 43.2789784,47.6660118 L43.2789784,48.9174853 C43.2789784,49.9076621 44.0766208,50.7053045 45.0667976,50.7053045 C46.0569745,50.7053045 46.8546169,49.9076621 46.8546169,48.9174853 L46.8546169,47.6797642 C49.4400786,46.9096267 51.3379175,44.502947 51.3379175,41.6699411 C51.3379175,38.2043222 48.5324165,35.3988212 45.0667976,35.3988212 Z" id="Shape"></path>
            </g>
        </g>
    </g>
</svg>