<?xml version="1.0" encoding="UTF-8"?>
<svg width="10px" height="16px" viewBox="0 0 10 16" version="1.1" xmlns="http://www.w3.org/2000/svg" xmlns:xlink="http://www.w3.org/1999/xlink">
    <!-- Generator: Sketch 49.1 (51147) - http://www.bohemiancoding.com/sketch -->
    <title>?</title>
    <desc>Created with Sketch.</desc>
    <defs></defs>
    <g id="mobile" stroke="none" stroke-width="1" fill="none" fill-rule="evenodd">
        <g id="014_Dskt" transform="translate(-1197.000000, -79.000000)" fill="#9B9B9B">
            <path d="M1206.95508,83.8730469 C1206.95508,85.1816472 1206.50586,86.2428345 1205.60742,87.0566406 C1204.70898,87.8704468 1203.51108,88.3359369 1202.01367,88.453125 L1201.95508,89.78125 L1201.08594,89.78125 L1201.08594,85.9824219 C1202.02995,85.9042965 1202.76888,85.6064479 1203.30273,85.0888672 C1203.83659,84.5712865 1204.10352,83.8665409 1204.10352,82.9746094 C1204.10352,82.2649704 1203.91634,81.6969422 1203.54199,81.2705078 C1203.16764,80.8440734 1202.66472,80.6308594 1202.0332,80.6308594 C1201.76627,80.6308594 1201.52865,80.6585284 1201.32031,80.7138672 C1201.11198,80.769206 1200.91016,80.8554682 1200.71484,80.9726562 C1200.77995,81.1809906 1200.85644,81.4495426 1200.94434,81.7783203 C1201.03223,82.107098 1201.07617,82.4114569 1201.07617,82.6914062 C1201.07617,83.1471377 1200.92806,83.5003243 1200.63184,83.7509766 C1200.33561,84.0016289 1199.92383,84.1269531 1199.39648,84.1269531 C1198.90169,84.1269531 1198.5127,83.9707047 1198.22949,83.6582031 C1197.94629,83.3457016 1197.80469,82.9615908 1197.80469,82.5058594 C1197.80469,81.7571577 1198.23112,81.1223984 1199.08398,80.6015625 C1199.93685,80.0807266 1200.96549,79.8203125 1202.16992,79.8203125 C1203.59571,79.8203125 1204.74967,80.1914025 1205.63184,80.9335938 C1206.514,81.675785 1206.95508,82.6555929 1206.95508,83.8730469 Z M1203.43945,92.4765625 C1203.43945,92.9713566 1203.25228,93.3961571 1202.87793,93.7509766 C1202.50358,94.105796 1202.06576,94.2832031 1201.56445,94.2832031 C1201.05664,94.2832031 1200.61556,94.105796 1200.24121,93.7509766 C1199.86686,93.3961571 1199.67969,92.9713566 1199.67969,92.4765625 C1199.67969,91.9817684 1199.86686,91.5537127 1200.24121,91.1923828 C1200.61556,90.8310529 1201.05664,90.6503906 1201.56445,90.6503906 C1202.06576,90.6503906 1202.50358,90.8310529 1202.87793,91.1923828 C1203.25228,91.5537127 1203.43945,91.9817684 1203.43945,92.4765625 Z" id="?"></path>
        </g>
    </g>
</svg>