<?xml version="1.0" encoding="UTF-8"?>
<svg width="9px" height="16px" viewBox="0 0 9 16" version="1.1" xmlns="http://www.w3.org/2000/svg" xmlns:xlink="http://www.w3.org/1999/xlink">
    <!-- Generator: Sketch 49.1 (51147) - http://www.bohemiancoding.com/sketch -->
    <title>icon-pesos</title>
    <desc>Created with Sketch.</desc>
    <defs></defs>
    <g id="Wireframes" stroke="none" stroke-width="1" fill="none" fill-rule="evenodd">
        <g id="014_Dskt" transform="translate(-817.000000, -821.000000)" fill="#4A4A4A" fill-rule="nonzero">
            <g id="icon-pesos" transform="translate(817.000000, 821.000000)">
                <path d="M3.984375,15.0859375 L3.984375,13.6796875 C3.2812465,13.5911454 2.7096376,13.4335949 2.2695312,13.2070313 C1.8294249,12.9804676 1.4492204,12.6145859 1.1289062,12.109375 C0.8085921,11.6041641 0.6223961,10.9869828 0.5703125,10.2578125 L1.984375,9.9921875 C2.0937505,10.7473996 2.286457,11.3020816 2.5625,11.65625 C2.9583353,12.1562525 3.4322889,12.4348955 3.984375,12.4921875 L3.984375,8.015625 C3.4062471,7.9062495 2.8151072,7.6822934 2.2109375,7.34375 C1.7630186,7.0937488 1.41797,6.747398 1.1757812,6.3046875 C0.9335925,5.861977 0.8125,5.3593778 0.8125,4.796875 C0.8125,3.79687 1.1666631,2.9869823 1.875,2.3671875 C2.3489607,1.9505188 3.0520787,1.695313 3.984375,1.6015625 L3.984375,0.9296875 L4.8125,0.9296875 L4.8125,1.6015625 C5.6302124,1.6796879 6.2786434,1.9192688 6.7578125,2.3203125 C7.3723989,2.8307317 7.7421869,3.5312455 7.8671875,4.421875 L6.4140625,4.640625 C6.3307287,4.0885389 6.1575534,3.6653661 5.8945312,3.3710938 C5.6315091,3.0768214 5.2708356,2.882813 4.8125,2.7890625 L4.8125,6.84375 C5.5208369,7.0208342 5.9895822,7.1588537 6.21875,7.2578125 C6.6562522,7.4505218 7.0130195,7.6848945 7.2890625,7.9609375 C7.5651055,8.2369805 7.777343,8.5651023 7.9257812,8.9453125 C8.0742195,9.3255227 8.1484375,9.736977 8.1484375,10.1796875 C8.1484375,11.1536507 7.8385448,11.9661426 7.21875,12.6171875 C6.5989552,13.2682324 5.7968799,13.6171873 4.8125,13.6640625 L4.8125,15.0859375 L3.984375,15.0859375 Z M3.984375,2.7734375 C3.4374973,2.8567713 3.006512,3.0755191 2.6914062,3.4296875 C2.3763005,3.7838559 2.21875,4.2031226 2.21875,4.6875 C2.21875,5.1666691 2.3528632,5.5677067 2.6210938,5.890625 C2.8893243,6.2135433 3.3437468,6.4713532 3.984375,6.6640625 L3.984375,2.7734375 Z M4.8125,12.4921875 C5.3593777,12.4244788 5.8111961,12.187502 6.1679688,11.78125 C6.5247414,11.374998 6.703125,10.8723988 6.703125,10.2734375 C6.703125,9.7630183 6.5768242,9.3528661 6.3242188,9.0429688 C6.0716133,8.7330714 5.5677121,8.4557304 4.8125,8.2109375 L4.8125,12.4921875 Z" id="$"></path>
            </g>
        </g>
    </g>
</svg>