<?xml version="1.0" encoding="UTF-8"?>
<svg width="9px" height="16px" viewBox="0 0 9 16" version="1.1" xmlns="http://www.w3.org/2000/svg" xmlns:xlink="http://www.w3.org/1999/xlink">
    <!-- Generator: Sketch 49.1 (51147) - http://www.bohemiancoding.com/sketch -->
    <title>$</title>
    <desc>Created with Sketch.</desc>
    <defs></defs>
    <g id="mobile" stroke="none" stroke-width="1" fill="none" fill-rule="evenodd">
        <g id="007_Dskt" transform="translate(-634.000000, -774.000000)" fill="#0061A0">
            <g id="información-comercial" transform="translate(319.000000, 556.000000)">
                <g id="remuneracion" transform="translate(1.000000, 155.000000)">
                    <g id="Group" transform="translate(301.000000, 53.000000)">
                        <path d="M16.984375,25.0859375 L16.984375,23.6796875 C16.2812465,23.5911454 15.7096376,23.4335949 15.2695312,23.2070313 C14.8294249,22.9804676 14.4492204,22.6145859 14.1289062,22.109375 C13.8085921,21.6041641 13.6223961,20.9869828 13.5703125,20.2578125 L14.984375,19.9921875 C15.0937505,20.7473996 15.286457,21.3020816 15.5625,21.65625 C15.9583353,22.1562525 16.4322889,22.4348955 16.984375,22.4921875 L16.984375,18.015625 C16.4062471,17.9062495 15.8151072,17.6822934 15.2109375,17.34375 C14.7630186,17.0937488 14.41797,16.747398 14.1757812,16.3046875 C13.9335925,15.861977 13.8125,15.3593778 13.8125,14.796875 C13.8125,13.79687 14.1666631,12.9869823 14.875,12.3671875 C15.3489607,11.9505188 16.0520787,11.695313 16.984375,11.6015625 L16.984375,10.9296875 L17.8125,10.9296875 L17.8125,11.6015625 C18.6302124,11.6796879 19.2786434,11.9192688 19.7578125,12.3203125 C20.3723989,12.8307317 20.7421869,13.5312455 20.8671875,14.421875 L19.4140625,14.640625 C19.3307287,14.0885389 19.1575534,13.6653661 18.8945312,13.3710938 C18.6315091,13.0768214 18.2708356,12.882813 17.8125,12.7890625 L17.8125,16.84375 C18.5208369,17.0208342 18.9895822,17.1588537 19.21875,17.2578125 C19.6562522,17.4505218 20.0130195,17.6848945 20.2890625,17.9609375 C20.5651055,18.2369805 20.777343,18.5651023 20.9257812,18.9453125 C21.0742195,19.3255227 21.1484375,19.736977 21.1484375,20.1796875 C21.1484375,21.1536507 20.8385448,21.9661426 20.21875,22.6171875 C19.5989552,23.2682324 18.7968799,23.6171873 17.8125,23.6640625 L17.8125,25.0859375 L16.984375,25.0859375 Z M16.984375,12.7734375 C16.4374973,12.8567713 16.006512,13.0755191 15.6914062,13.4296875 C15.3763005,13.7838559 15.21875,14.2031226 15.21875,14.6875 C15.21875,15.1666691 15.3528632,15.5677067 15.6210938,15.890625 C15.8893243,16.2135433 16.3437468,16.4713532 16.984375,16.6640625 L16.984375,12.7734375 Z M17.8125,22.4921875 C18.3593777,22.4244788 18.8111961,22.187502 19.1679688,21.78125 C19.5247414,21.374998 19.703125,20.8723988 19.703125,20.2734375 C19.703125,19.7630183 19.5768242,19.3528661 19.3242188,19.0429688 C19.0716133,18.7330714 18.5677121,18.4557304 17.8125,18.2109375 L17.8125,22.4921875 Z" id="$"></path>
                    </g>
                </g>
            </g>
        </g>
    </g>
</svg>