<?xml version="1.0" encoding="UTF-8"?>
<svg width="70px" height="70px" viewBox="0 0 70 70" version="1.1" xmlns="http://www.w3.org/2000/svg" xmlns:xlink="http://www.w3.org/1999/xlink">
    <!-- Generator: Sketch 49.1 (51147) - http://www.bohemiancoding.com/sketch -->
    <title>003-leadership</title>
    <desc>Created with Sketch.</desc>
    <defs></defs>
    <g id="mobile" stroke="none" stroke-width="1" fill="none" fill-rule="evenodd">
        <g id="009_Dskt" transform="translate(-968.000000, -162.000000)" fill="#CECCCF" fill-rule="nonzero">
            <g id="003-leadership" transform="translate(968.000000, 162.000000)">
                <path d="M54.8333965,34.6432023 C54.8333965,32.9235455 53.6025683,31.4722204 51.9085754,31.1910554 L48.0469248,30.5470591 L48.7889217,26.8335803 L58.3333819,26.8335803 L58.3333819,33.8335403 L60.6667056,33.8335403 L60.6667056,25.6669203 L60.6667056,21.0002804 L60.6667056,11.2213363 L69.354836,6.8766945 C69.7503344,6.67952896 70,6.2758646 70,5.83370047 C70,5.39153633 69.7503344,4.98787197 69.354836,4.78953977 L60.0215416,0.122899808 C59.6587098,-0.0567658308 59.2293782,-0.0392659309 58.8863796,0.174232848 C58.5433811,0.387731626 58.3333819,0.762229483 58.3333819,1.1670605 L58.3333819,10.5003404 L58.3333819,19.8336204 L49.5367519,19.8336204 C50.6497473,18.5934608 51.3334111,16.9613035 51.3334111,15.1669804 C51.3334111,11.3065025 48.1939242,8.16702045 44.3334403,8.16702045 C40.4729564,8.16702045 37.3334694,11.3065025 37.3334694,15.1669804 C37.3334694,17.2623017 38.2632989,19.1406243 39.7262928,20.4239503 L29.6755014,29.3582325 L23.1503619,32.6202139 L19.8043758,32.0625504 C21.2498698,30.7792244 22.166866,28.9137351 22.166866,26.8335803 C22.166866,22.9731024 19.0273791,19.8336204 15.1668951,19.8336204 C11.3064112,19.8336204 8.1669243,22.9731024 8.1669243,26.8335803 C8.1669243,28.9627348 9.12592031,30.8702239 10.630914,32.1547165 C10.6145808,32.187383 10.5912475,32.2130495 10.5784143,32.2468827 L6.96176266,41.6501622 C6.30026542,43.373319 6.47876467,45.2598082 7.45292728,46.8266326 C7.63842651,47.1252975 7.85425894,47.394796 8.08292465,47.6502945 L4.90727122,52.9434309 L0.342123574,57.5085715 C-0.114041191,57.9647355 -0.114041191,58.7020646 0.342123574,59.1582287 L3.84210899,62.6582087 C4.06960804,62.8857074 4.36827347,63.0000401 4.66693889,63.0000401 C4.96560431,63.0000401 5.26426973,62.8857074 5.49176878,62.6582087 L11.3250778,56.8249087 C11.3799109,56.7700757 11.4289107,56.710576 11.4709105,56.6475764 L15.9520585,49.9252815 L17.5002187,50.0652807 L17.5002187,54.8334201 L16.3335569,54.8334201 C15.688393,54.8334201 15.1668951,55.3549171 15.1668951,56.0000801 L15.1668951,64.4046987 L0.904454565,67.6958465 C0.374790105,67.8183458 0.000291665451,68.2896765 0.000291665451,68.83334 L0,70 L2.33361528,70 L2.33361528,69.7620014 L16.5960558,66.4708535 C17.1257203,66.3483542 17.5002187,65.8770236 17.5002187,65.33336 L17.5002187,57.1667401 L18.6668806,57.1667401 L24.5001896,57.1667401 L35.0001458,57.1667401 C35.3303111,57.1667401 35.6464765,57.0267409 35.8669756,56.7805756 L46.0192666,45.5001402 L47.8334257,45.5001402 L53.6667347,45.5001402 L70,45.5001402 L70,43.1668202 L54.8333965,43.1668202 L54.8333965,34.6432023 Z M60.6667056,3.05471637 L66.2246824,5.83370047 L60.6667056,8.61268457 L60.6667056,3.05471637 Z M39.6667931,15.1669804 C39.6667931,12.5933285 41.7597843,10.5003404 44.3334403,10.5003404 C46.9070962,10.5003404 49.0000875,12.5933285 49.0000875,15.1669804 C49.0000875,17.7406323 46.9070962,19.8336204 44.3334403,19.8336204 C41.7597843,19.8336204 39.6667931,17.7406323 39.6667931,15.1669804 Z M38.0217999,25.0602571 L36.2473073,29.6732307 L32.9514877,32.1582165 L31.8664922,30.5307258 L38.0217999,25.0602571 Z M10.5002479,26.8335803 C10.5002479,24.2599284 12.5932392,22.1669403 15.1668951,22.1669403 C17.7405511,22.1669403 19.8335424,24.2599284 19.8335424,26.8335803 C19.8335424,29.4072323 17.7405511,31.5002203 15.1668951,31.5002203 C12.5932392,31.5002203 10.5002479,29.4072323 10.5002479,26.8335803 Z M9.59375169,55.2569177 L4.66693889,60.1837228 L2.81661326,58.3334001 L6.65843059,54.4915887 C6.72609697,54.4239225 6.78443006,54.3492562 6.83342986,54.26759 L9.96591681,49.0467866 C10.5597477,49.3186183 11.2025783,49.4936173 11.8769088,49.5554503 L13.3072362,49.6849496 L9.59375169,55.2569177 Z M23.3335278,54.8334201 L19.8335424,54.8334201 L19.8335424,49.0001202 C19.8335424,48.3957903 19.3727109,47.8929598 18.7730468,47.8381268 L12.0892413,47.2302969 C10.9867459,47.1299642 10.0195833,46.5338009 9.43391903,45.593473 C8.84942146,44.653145 8.74208857,43.5226515 9.13992025,42.4889907 L12.4684064,33.8335403 L16.236724,33.8335403 L23.1421952,34.983867 C23.3860276,35.0235335 23.6356932,34.9862003 23.8550256,34.8765343 L29.9333336,31.837385 L31.0019958,33.4403758 L24.1898575,37.3335202 L18.6668806,37.3335202 C18.1313828,37.3335202 17.6658847,37.6975182 17.5352186,38.2178485 L16.3685568,42.8844885 C16.2892238,43.2006533 16.3452236,43.5343181 16.5248895,43.8061499 C16.7022221,44.0779816 16.9868876,44.2646472 17.3088862,44.3171469 L22.3593652,45.1594755 C22.9228628,45.2528083 23.3335278,45.7369722 23.3335278,46.3098022 L23.3335278,54.8334201 Z M46.6667639,43.1668202 L45.5001021,43.1668202 C45.1699368,43.1668202 44.8537714,43.3068194 44.6332724,43.5529847 L34.4809813,54.8334201 L25.6668514,54.8334201 L25.6668514,46.3098022 C25.6668514,44.5901454 24.4360232,43.1388204 22.7420302,42.8576553 L18.9375461,42.2229923 L19.5780434,39.6668402 L24.5001896,39.6668402 C24.7031887,39.6668402 24.9026879,39.6131739 25.0788538,39.5128411 L33.2454865,34.8462011 C33.2629864,34.8357012 33.2734864,34.8170346 33.2909863,34.8065347 C33.3154862,34.7902015 33.3446527,34.7832015 33.3691526,34.7657016 L35.8063091,32.9282121 C35.9218087,33.7063743 36.1878076,34.4647033 36.6194724,35.1600327 C36.8049716,35.4586976 37.0208041,35.7281961 37.2494698,35.9836946 L34.0738164,41.276831 L29.5086687,45.8419716 C29.0525039,46.2981356 29.0525039,47.0354647 29.5086687,47.4916288 L33.0086541,50.9916088 C33.2361532,51.2191075 33.5348186,51.3334401 33.833484,51.3334401 C34.1321494,51.3334401 34.4308149,51.2191075 34.6583139,50.9916088 L40.491623,45.1583088 C40.5464561,45.1034758 40.5954559,45.0439761 40.6374557,44.9809765 L45.1186037,38.2586816 L46.6667639,38.3986808 L46.6667639,43.1668202 Z M39.1324619,37.3801866 C39.7262928,37.6520184 40.3691235,37.8270174 41.043454,37.8888504 L42.4737814,38.0183497 L38.7591302,43.5903178 L33.833484,48.5171229 L31.9831584,46.6668002 L35.8249757,42.8249888 C35.8926421,42.7573225 35.9509752,42.6826563 35.999975,42.6009901 L39.1324619,37.3801866 Z M52.5000729,43.1668202 L49.0000875,43.1668202 L49.0000875,37.3335202 C49.0000875,36.7291904 48.5392561,36.2263599 47.9395919,36.1715269 L41.2557864,35.563697 C40.153291,35.4633643 39.1861284,34.867201 38.6004642,33.9268731 C38.0159666,32.9865451 37.9086337,31.8560516 38.3064654,30.8223908 L41.6349515,22.1669403 L58.3333819,22.1669403 L58.3333819,24.5002603 L47.8334257,24.5002603 C47.276928,24.5002603 46.7985967,24.8934247 46.6900971,25.438255 L45.5234353,31.2715549 C45.4616022,31.5818865 45.528102,31.902718 45.7066012,32.1640498 C45.8862671,32.424215 46.1639327,32.599214 46.4754314,32.6517137 L51.5259103,33.4940422 C52.089408,33.5862083 52.5000729,34.0703722 52.5000729,34.6432023 L52.5000729,43.1668202 Z" id="Shape"></path>
            </g>
        </g>
    </g>
</svg>