<?xml version="1.0" encoding="UTF-8"?>
<svg width="17px" height="16px" viewBox="0 0 17 16" version="1.1" xmlns="http://www.w3.org/2000/svg" xmlns:xlink="http://www.w3.org/1999/xlink">
    <!-- Generator: Sketch 49.1 (51147) - http://www.bohemiancoding.com/sketch -->
    <title>Fill 35</title>
    <desc>Created with Sketch.</desc>
    <defs></defs>
    <g id="final-WS" stroke="none" stroke-width="1" fill="none" fill-rule="evenodd">
        <g id="014_Dskt" transform="translate(-1174.000000, -235.000000)" fill="#1697F3">
            <path d="M1189.96574,237.864271 L1187.38698,235.319924 C1187.17055,235.106556 1186.8723,235 1186.5743,235 C1186.27324,235 1185.97524,235.106556 1185.75881,235.319924 L1184.94613,236.122919 L1184.24026,236.819613 L1188.47243,240.966892 L1189.1783,240.270453 L1189.99098,239.467458 C1190.42689,239.040723 1190.42689,238.319047 1189.96574,237.864271 Z M1189.25987,238.774078 L1188.44413,239.574014 L1185.67698,236.819613 L1186.49272,236.016363 C1186.51796,235.991381 1186.5743,235.963085 1186.59954,235.963085 C1186.62758,235.963085 1186.65587,235.963085 1186.70941,236.016363 L1189.28511,238.557652 C1189.31315,238.585948 1189.34145,238.639226 1189.34145,238.664208 C1189.31315,238.692504 1189.28511,238.745782 1189.25987,238.774078 Z M1186.8723,241.126982 L1180.22452,247.655716 L1179.24869,246.692376 L1185.92171,240.110619 L1185.21583,239.41418 L1178.54282,245.995937 L1177.45763,244.926297 L1184.13039,238.344284 L1183.42452,237.647845 L1176.18048,244.791189 C1176.1272,244.844722 1176.09916,244.90106 1176.07392,244.979575 L1174.03789,250.331602 C1173.95631,250.516928 1174.01265,250.705059 1174.14776,250.839911 C1174.25431,250.946722 1174.36418,251 1174.49903,251 C1174.55537,251 1174.6089,251 1174.66218,250.971704 L1180.03307,249.208428 C1180.11465,249.180387 1180.17124,249.15515 1180.22452,249.098813 L1187.57817,241.848403 L1186.8723,241.126982 Z M1176.86137,245.729292 L1179.49035,248.323859 L1176.58835,249.286943 L1175.77592,248.512244 L1176.86137,245.729292 Z" id="Fill-35"></path>
        </g>
    </g>
</svg>