<?xml version="1.0" encoding="UTF-8"?>
<svg width="16px" height="16px" viewBox="0 0 16 16" version="1.1" xmlns="http://www.w3.org/2000/svg" xmlns:xlink="http://www.w3.org/1999/xlink">
    <!-- Generator: Sketch 49.1 (51147) - http://www.bohemiancoding.com/sketch -->
    <title>Fill 84</title>
    <desc>Created with Sketch.</desc>
    <defs></defs>
    <g id="final-WS" stroke="none" stroke-width="1" fill="none" fill-rule="evenodd">
        <g id="021_Dskt" transform="translate(-533.000000, -233.000000)" fill="#1697F3">
            <path d="M540.721698,242.19075 C540.403414,242.19075 540.113695,241.90675 540.113695,241.59475 C540.113695,241.28275 540.403414,240.99875 540.721698,240.99875 C541.039982,240.99875 541.329957,241.28275 541.329957,241.59475 C541.329957,241.90675 541.039982,242.19075 540.721698,242.19075 Z M543.023135,242.19075 C542.704851,242.19075 542.415131,241.90675 542.415131,241.59475 C542.415131,241.28275 542.704851,240.99875 543.023135,240.99875 C543.341419,240.99875 543.631394,241.28275 543.631394,241.59475 C543.631394,241.90675 543.341419,242.19075 543.023135,242.19075 Z M545.366653,242.19075 C545.048369,242.19075 544.758649,241.90675 544.758649,241.59475 C544.758649,241.30175 544.98614,240.99875 545.366653,240.99875 C545.684937,240.99875 545.974657,241.28275 545.974657,241.59475 C545.974657,241.90675 545.684937,242.19075 545.366653,242.19075 Z M536.076999,244.52925 C535.758715,244.52925 535.46874,244.245 535.46874,243.933 C535.46874,243.56 535.777842,243.33725 536.076999,243.33725 C536.395283,243.33725 536.685002,243.621 536.685002,243.933 C536.685002,244.245 536.395283,244.52925 536.076999,244.52925 Z M538.420261,244.52925 C538.101978,244.52925 537.812258,244.245 537.812258,243.933 C537.812258,243.5765 538.056581,243.33725 538.420261,243.33725 C538.738545,243.33725 539.028265,243.621 539.028265,243.933 C539.028265,244.245 538.738545,244.52925 538.420261,244.52925 Z M540.721698,244.52925 C540.403414,244.52925 540.113695,244.245 540.113695,243.933 C540.113695,243.621 540.403414,243.33725 540.721698,243.33725 C541.020599,243.33725 541.329957,243.56 541.329957,243.933 C541.329957,244.245 541.039982,244.52925 540.721698,244.52925 Z M543.023135,244.52925 C542.704851,244.52925 542.415131,244.245 542.415131,243.933 C542.415131,243.56 542.724489,243.33725 543.023135,243.33725 C543.341419,243.33725 543.631394,243.621 543.631394,243.933 C543.631394,244.245 543.341419,244.52925 543.023135,244.52925 Z M545.366653,244.52925 C545.048369,244.52925 544.758649,244.245 544.758649,243.933 C544.758649,243.5765 545.002973,243.33725 545.366653,243.33725 C545.684937,243.33725 545.974657,243.621 545.974657,243.933 C545.974657,244.245 545.684937,244.52925 545.366653,244.52925 Z M536.076999,246.82625 C535.758715,246.82625 535.46874,246.542 535.46874,246.23 C535.46874,245.918 535.758715,245.63425 536.076999,245.63425 C536.395283,245.63425 536.685002,245.918 536.685002,246.23 C536.685002,246.542 536.395283,246.82625 536.076999,246.82625 Z M538.420261,246.82625 C538.101978,246.82625 537.812258,246.542 537.812258,246.23 C537.812258,245.937 538.039749,245.63425 538.420261,245.63425 C538.738545,245.63425 539.028265,245.918 539.028265,246.23 C539.028265,246.542 538.738545,246.82625 538.420261,246.82625 Z M540.721698,246.82625 C540.403414,246.82625 540.113695,246.542 540.113695,246.23 C540.113695,245.918 540.403414,245.63425 540.721698,245.63425 C541.039982,245.63425 541.329957,245.918 541.329957,246.23 C541.329957,246.542 541.039982,246.82625 540.721698,246.82625 Z M543.023135,246.82625 C542.704851,246.82625 542.415131,246.542 542.415131,246.23 C542.415131,245.918 542.704851,245.63425 543.023135,245.63425 C543.403903,245.63425 543.631394,245.937 543.631394,246.23 C543.631394,246.542 543.341419,246.82625 543.023135,246.82625 Z M537.918097,233.65875 C537.524833,233.65875 537.270818,233.908 537.270818,234.29325 L537.270818,236.4265 C537.270818,236.81175 537.524833,237.061 537.918097,237.061 C538.311361,237.061 538.565376,236.81175 538.565376,236.4265 L538.565376,234.29325 C538.565376,233.93175 538.287133,233.65875 537.918097,233.65875 Z M543.441648,233.65875 C543.048639,233.65875 542.794369,233.908 542.794369,234.29325 L542.794369,236.4265 C542.794369,236.78825 543.072612,237.061 543.441648,237.061 C543.810684,237.061 544.089182,236.78825 544.089182,236.4265 L544.089182,234.29325 C544.089182,233.908 543.834912,233.65875 543.441648,233.65875 Z M533.965053,238.866 L547.352866,238.866 L547.352866,235.83275 L544.761199,235.83275 L544.761199,236.4265 C544.761199,237.17575 544.188646,237.71975 543.399822,237.71975 C542.610998,237.71975 542.0387,237.17575 542.0387,236.4265 L542.0387,235.83275 L539.237649,235.83275 L539.237649,236.4265 C539.237649,237.17575 538.665095,237.71975 537.876271,237.71975 C537.087448,237.71975 536.514894,237.17575 536.514894,236.4265 L536.514894,235.93425 L536.453431,235.9945 L536.453431,235.83275 L533.965053,235.83275 L533.965053,238.866 Z M533.965053,248.0545 L547.353121,248.0545 L547.353121,239.8525 L533.965053,239.8525 L533.965053,248.0545 Z M533.482526,249 C533.203008,249 533,248.80125 533,248.52725 L533,235.36 C533,235.08575 533.203008,234.887 533.482526,234.887 L536.55672,234.887 L536.55672,234.29325 C536.55672,233.544 537.129274,233 537.918097,233 C538.706921,233 539.279475,233.544 539.279475,234.29325 L539.279475,234.887 L542.080525,234.887 L542.080525,234.29325 C542.080525,233.544 542.652824,233 543.441648,233 C544.230471,233 544.803025,233.544 544.803025,234.29325 L544.803025,234.887 L547.877474,234.887 C548.156992,234.887 548.36,235.08575 548.36,235.36 L548.36,248.52725 C548.36,248.80125 548.156992,249 547.877474,249 L533.482526,249 Z" id="Fill-84"></path>
        </g>
    </g>
</svg>