<?xml version="1.0" encoding="UTF-8"?>
<svg width="30px" height="27px" viewBox="0 0 30 27" version="1.1" xmlns="http://www.w3.org/2000/svg" xmlns:xlink="http://www.w3.org/1999/xlink">
    <!-- Generator: Sketch 49.1 (51147) - http://www.bohemiancoding.com/sketch -->
    <title>i_auto</title>
    <desc>Created with Sketch.</desc>
    <defs></defs>
    <g id="final-WS" stroke="none" stroke-width="1" fill="none" fill-rule="evenodd">
        <g id="0025_" transform="translate(-23.000000, -512.000000)" fill-rule="nonzero">
            <g id="i_auto" transform="translate(23.000000, 512.000000)">
                <path d="M27.4367857,9.86607143 L26.3314286,7.10285714 L24.1171429,1.56714286 C23.8111561,0.802012402 23.0701178,0.300301635 22.2460714,0.300357143 L7.75428571,0.300357143 C6.93023929,0.300301635 6.18920104,0.802012402 5.88321429,1.56714286 L3.66892857,7.10285714 L2.56357143,9.86607143 L27.4367857,9.86607143 Z" id="Shape" fill="#0061A0"></path>
                <path d="M27.3010714,8.93214286 L2.69892857,8.93214286 C1.23616296,8.93214286 0.0503571429,10.1179487 0.0503571429,11.5807143 L0.0503571429,19.6428571 L29.9496429,19.6428571 L29.9496429,11.5810714 C29.9497376,10.8785647 29.6707343,10.2047985 29.1740205,9.70801773 C28.6773068,9.21123699 28.0035781,8.93214285 27.3010714,8.93214286 Z" id="Shape" fill="#0090DA"></path>
                <ellipse id="Oval" fill="#FFFFFF" cx="5.04642857" cy="14.2282143" rx="2.50607143" ry="2.45321429"></ellipse>
                <ellipse id="Oval" fill="#FFFFFF" cx="25.1596429" cy="14.2282143" rx="2.50607143" ry="2.45321429"></ellipse>
                <path d="M7.34642857,19.6428571 L7.34642857,22.8339286 C7.34113262,24.6511142 5.86932844,26.1229183 4.05214286,26.1282143 L3.34464286,26.1282143 C1.52745727,26.1229183 0.0556530922,24.6511142 0.0503571429,22.8339286 L0.0503571429,19.6428571" id="Shape" fill="#0061A0"></path>
                <path d="M29.9496429,19.6428571 L29.9496429,22.8339286 C29.9443469,24.6511142 28.4725427,26.1229183 26.6553571,26.1282143 L25.9475,26.1282143 C24.1303144,26.1229183 22.6585102,24.6511142 22.6532143,22.8339286 L22.6532143,19.6428571" id="Shape" fill="#0061A0"></path>
            </g>
        </g>
    </g>
</svg>