<?xml version="1.0" encoding="UTF-8"?>
<svg width="32px" height="70px" viewBox="0 0 32 70" version="1.1" xmlns="http://www.w3.org/2000/svg" xmlns:xlink="http://www.w3.org/1999/xlink">
    <!-- Generator: Sketch 49.1 (51147) - http://www.bohemiancoding.com/sketch -->
    <title>004-man</title>
    <desc>Created with Sketch.</desc>
    <defs></defs>
    <g id="mobile" stroke="none" stroke-width="1" fill="none" fill-rule="evenodd">
        <g id="009_Dskt" transform="translate(-594.000000, -162.000000)" fill="#CECCCF" fill-rule="nonzero">
            <g id="004-man" transform="translate(594.000000, 162.000000)">
                <path d="M24.6612121,70 L7.15484848,70 C6.56939394,70 6.09424242,69.5248485 6.09424242,68.9393939 L6.09424242,48.3615152 L5.85454545,48.3615152 C2.73636364,48.3615152 0.201515152,45.8266667 0.201515152,42.7084848 L0.201515152,29.0436364 C0.201515152,25.9254545 2.73636364,23.3906061 5.85454545,23.3906061 L25.9615152,23.3906061 C29.079697,23.3906061 31.6145455,25.9254545 31.6145455,29.0436364 L31.6145455,42.7084848 C31.6145455,45.8245455 29.079697,48.3615152 25.9615152,48.3615152 L25.7218182,48.3615152 L25.7218182,68.9393939 C25.7218182,69.5248485 25.2487879,70 24.6612121,70 Z M8.21757576,67.8787879 L23.6027273,67.8787879 L23.6027273,47.3009091 C23.6027273,46.7154545 24.0778788,46.240303 24.6633333,46.240303 L25.9636364,46.240303 C27.9109091,46.240303 29.4954545,44.6557576 29.4954545,42.7084848 L29.4954545,29.0436364 C29.4954545,27.0963636 27.9109091,25.5118182 25.9636364,25.5118182 L5.85454545,25.5118182 C3.90727273,25.5118182 2.32272727,27.0963636 2.32272727,29.0436364 L2.32272727,42.7084848 C2.32272727,44.6557576 3.90727273,46.240303 5.85454545,46.240303 L7.15484848,46.240303 C7.74030303,46.240303 8.21545455,46.7154545 8.21545455,47.3009091 L8.21545455,67.8787879 L8.21757576,67.8787879 Z" id="Shape"></path>
                <path d="M15.9090909,20.9193939 C10.1415152,20.9193939 5.44939394,16.2272727 5.44939394,10.459697 C5.44939394,4.69212121 10.1415152,0 15.9090909,0 C21.6787879,0 26.3709091,4.69212121 26.3709091,10.459697 C26.3709091,16.2272727 21.6766667,20.9193939 15.9090909,20.9193939 Z M15.9090909,2.12121212 C11.3124242,2.12121212 7.57060606,5.8630303 7.57060606,10.459697 C7.57060606,15.0563636 11.3124242,18.7981818 15.9090909,18.7981818 C20.5078788,18.7981818 24.249697,15.0563636 24.249697,10.459697 C24.249697,5.8630303 20.5057576,2.12121212 15.9090909,2.12121212 Z" id="Shape"></path>
            </g>
        </g>
    </g>
</svg>