<?xml version="1.0" encoding="UTF-8"?>
<svg width="18px" height="15px" viewBox="0 0 18 15" version="1.1" xmlns="http://www.w3.org/2000/svg" xmlns:xlink="http://www.w3.org/1999/xlink">
    <!-- Generator: Sketch 49.1 (51147) - http://www.bohemiancoding.com/sketch -->
    <title>Page 1</title>
    <desc>Created with Sketch.</desc>
    <defs>
        <polygon id="path-1" points="0 0.000252 17.715924 0.000252 17.715924 14.39514 0 14.39514"></polygon>
    </defs>
    <g id="mobile" stroke="none" stroke-width="1" fill="none" fill-rule="evenodd">
        <g id="007_Dskt" transform="translate(-1126.000000, -1212.000000)">
            <g id="Page-1" transform="translate(1126.000000, 1212.000000)">
                <mask id="mask-2" fill="white">
                    <use xlink:href="#path-1"></use>
                </mask>
                <g id="Clip-2"></g>
                <path d="M17.715924,1.703772 C17.064324,1.993212 16.363764,2.187972 15.628284,2.276892 C16.377444,1.825452 16.956324,1.114092 17.226684,0.264852 C16.523244,0.681372 15.744564,0.984492 14.917284,1.146852 C14.254524,0.440892 13.310964,0.000252 12.264084,0.000252 C10.257444,0.000252 8.629524,1.628172 8.629524,3.634452 C8.629524,3.918492 8.661924,4.197132 8.724204,4.462092 C5.703444,4.310892 3.026124,2.861172 1.233324,0.662652 C0.919404,1.200852 0.741204,1.825452 0.741204,2.493252 C0.741204,3.753612 1.382004,4.864932 2.358324,5.516892 C1.760724,5.497812 1.200924,5.335452 0.711324,5.062572 L0.711324,5.108652 C0.711324,6.869052 1.963404,8.337492 3.626604,8.672652 C3.320964,8.756532 3.001644,8.800092 2.669364,8.800092 C2.433924,8.800092 2.206764,8.778132 1.985004,8.734932 C2.447244,10.176372 3.788604,11.231172 5.378724,11.258172 C4.137804,12.234492 2.569284,12.813012 0.865404,12.813012 C0.570564,12.813012 0.284004,12.796812 -3.6e-05,12.764412 C1.606284,13.794732 3.518244,14.395212 5.570964,14.395212 C12.256164,14.395212 15.912324,8.856612 15.912324,4.056372 C15.912324,3.896892 15.909444,3.739932 15.901524,3.583332 C16.612884,3.075012 17.229204,2.433852 17.715924,1.703772" id="Fill-1" fill="#0061A0" mask="url(#mask-2)"></path>
            </g>
        </g>
    </g>
</svg>