<?xml version="1.0" encoding="UTF-8"?>
<svg width="30px" height="28px" viewBox="0 0 30 28" version="1.1" xmlns="http://www.w3.org/2000/svg" xmlns:xlink="http://www.w3.org/1999/xlink">
    <!-- Generator: Sketch 49.1 (51147) - http://www.bohemiancoding.com/sketch -->
    <title>Group 18</title>
    <desc>Created with Sketch.</desc>
    <defs></defs>
    <g id="Symbols" stroke="none" stroke-width="1" fill="none" fill-rule="evenodd">
        <g id="tit_Proyectos_Dskt" transform="translate(-26.000000, -11.000000)">
            <g id="Group-18" transform="translate(26.000000, 11.000000)">
                <path d="M23.3011494,22.2391448 L14.1287356,22.2391448 L14.1287356,20.8552368 L15.6735632,20.8552368 L15.6735632,15.3517885 L21.7885057,15.3517885 L21.7885057,20.8552368 L23.2689655,20.8552368 L23.2689655,22.2391448 L23.3011494,22.2391448 Z M15.2873563,5.3425931 L2.63908046,16.7035126 L2.63908046,24.974777 L6.46896552,24.974777 L6.46896552,15.3196046 L12.583908,15.3196046 L12.583908,24.974777 L25.6183908,24.974777 L25.6183908,14.6437425 L15.2873563,5.3425931 Z" id="Fill-1" fill="#999DA0"></path>
                <polygon id="Fill-2" fill="#FFFFFF" points="15.6734989 15.3196046 15.6734989 20.8552368 21.7884414 15.3196046"></polygon>
                <polygon id="Fill-3" fill="#565D63" points="25.6184552 4.98853793 21.7885701 4.98853793 21.7885701 7.08049195 25.6184552 10.5241701"></polygon>
                <polygon id="Fill-4" fill="#565D63" points="6.46896552 24.9747126 12.583908 24.9747126 12.583908 15.3195402 6.46896552 15.3195402"></polygon>
                <polygon id="Fill-5" fill="#565D63" points="14.1287356 4.31264368 2.63908046 14.6436782 2.63908046 16.7034483 15.2873563 5.34252874"></polygon>
                <polygon id="Fill-6" fill="#999DA0" points="12.583908 27.7425287 25.6183908 27.7425287 25.6183908 24.9747126 12.583908 24.9747126"></polygon>
                <polygon id="Fill-7" fill="#999DA0" points="2.63908046 27.7425287 6.46896552 27.7425287 6.46896552 24.9747126 2.63908046 24.9747126"></polygon>
                <polygon id="Fill-8" fill="#565D63" points="6.46896552 27.7425287 12.583908 27.7425287 12.583908 24.9747126 6.46896552 24.9747126"></polygon>
                <polygon id="Fill-9" fill="#565D63" points="21.7884414 20.8553011 15.6734989 20.8553011 14.1286713 20.8553011 14.1286713 22.2392092 23.3010851 22.2392092 23.3010851 20.8553011"></polygon>
                <polygon id="Fill-10" fill="#AECA3A" points="14.1287356 0.193167816 0.16091954 12.8736276 0.16091954 16.9931678 14.1287356 4.31270805 15.2873563 5.3425931 28.0643678 16.9931678 28.0643678 12.8736276 25.6183908 10.5242023 21.7885057 7.08052414"></polygon>
                <polygon id="Fill-11" fill="#F1F2F1" points="21.7884414 15.3196046 15.6734989 20.8552368 21.7884414 20.8552368"></polygon>
                <polygon id="Fill-12" fill="#D7D6D3" points="20.2758621 24.2988506 29.4482759 24.2988506 29.4482759 18.9563218 20.2758621 18.9563218"></polygon>
                <polygon id="Fill-13" fill="#9C9FA2" points="24.1057471 27.7425287 25.6505747 27.7425287 25.6505747 24.2988506 24.1057471 24.2988506"></polygon>
            </g>
        </g>
    </g>
</svg>