<?xml version="1.0" encoding="UTF-8"?>
<svg width="70px" height="70px" viewBox="0 0 70 70" version="1.1" xmlns="http://www.w3.org/2000/svg" xmlns:xlink="http://www.w3.org/1999/xlink">
    <!-- Generator: Sketch 49.1 (51147) - http://www.bohemiancoding.com/sketch -->
    <title>002-goal</title>
    <desc>Created with Sketch.</desc>
    <defs></defs>
    <g id="mobile" stroke="none" stroke-width="1" fill="none" fill-rule="evenodd">
        <g id="009_Dskt" transform="translate(-837.000000, -162.000000)" fill="#CECCCF" fill-rule="nonzero">
            <g id="002-goal" transform="translate(837.000000, 162.000000)">
                <path d="M69.9179669,11.2379931 C69.7994295,10.9380144 69.5619173,10.7004522 69.2618558,10.581744 L43.6006225,0.0817576642 C43.4596315,0.0259035703 43.3090176,-0.00180472702 43.157383,9.11038476e-05 L38.4917042,9.11038476e-05 C37.8475489,9.11038476e-05 37.3252845,0.522465424 37.3252845,1.16675625 L37.3252845,33.8333804 L32.6596057,33.8333804 L32.6596057,28.0000547 C32.6596057,23.4897272 29.0040464,19.8333986 24.4946678,19.8333986 L22.4767618,19.8333986 C26.3540866,16.4378197 26.7451288,10.5412024 23.3502643,6.6630616 C19.9553998,2.78492081 14.060023,2.39365049 10.1826982,5.78937524 C6.30537328,9.18495415 5.91418527,15.0815715 9.3091956,18.9597123 C9.58082559,19.2698994 9.87257632,19.5618573 10.1826982,19.8333986 L8.16493788,19.8333986 C3.65555933,19.8333986 0,23.4897272 0,28.0000547 L0,44.3333667 C0,44.9776576 0.522264419,45.5000319 1.1664197,45.5000319 L6.99851818,45.5000319 L6.99851818,68.8333349 C6.99851818,69.4776257 7.5207826,70 8.16493788,70 L24.4948136,70 C25.1389689,70 25.6612333,69.4776257 25.6612333,68.8333349 L25.6612333,42.0000364 C26.6675619,42.7634729 27.8975515,43.1735557 29.1604924,43.1667016 L37.3254303,43.1667016 L37.3254303,68.8333349 C37.3254303,69.4776257 37.8476947,70 38.49185,70 L43.1575288,70 C43.8016841,70 44.3239485,69.4776257 44.3239485,68.8333349 L44.3239485,22.9483946 L69.2620016,12.7517412 C69.8611039,12.5149081 70.1548959,11.8372215 69.9179669,11.2379931 Z M9.33135758,12.8334077 C9.33135758,8.9673711 12.4646525,5.83341685 16.3298758,5.83341685 C20.195099,5.83341685 23.3283939,8.9673711 23.3283939,12.8334077 C23.3283939,16.6994444 20.195099,19.8333986 16.3298758,19.8333986 C12.4646525,19.8333986 9.33135758,16.6994444 9.33135758,12.8334077 Z M18.1494905,22.1667289 L16.3298758,27.0083893 L14.510261,22.1667289 L18.1494905,22.1667289 Z M37.3254303,40.8333713 L29.1604924,40.8333713 C27.2278808,40.8333713 25.6612333,39.2663942 25.6612333,37.3333758 L25.6612333,28.0000547 L23.3283939,28.0000547 L23.3283939,67.6666697 L17.4962955,67.6666697 L17.4962955,43.1667016 L15.1634561,43.1667016 L15.1634561,67.6666697 L9.33135758,67.6666697 L9.33135758,28.0000547 L6.99851818,28.0000547 L6.99851818,43.1667016 L2.33283939,43.1667016 L2.33283939,28.0000547 C2.33283939,24.7784547 4.94401569,22.1667289 8.16493788,22.1667289 L12.0257871,22.1667289 L15.2334412,30.7417178 C15.4531656,31.3473628 16.1222531,31.6601749 16.7277707,31.4404044 C17.0526186,31.3225712 17.3083561,31.066634 17.4263103,30.7417178 L20.6339644,22.1667289 L24.4948136,22.1667289 C27.7157358,22.1667289 30.3269121,24.7784547 30.3269121,28.0000547 L30.3269121,35.0000456 C30.3269121,35.6443364 30.8491765,36.1667107 31.4933318,36.1667107 L37.3254303,36.1667107 L37.3254303,40.8333713 Z M41.9911091,67.6666697 L39.6582697,67.6666697 L39.6582697,2.3334214 L41.9911091,2.3334214 L41.9911091,67.6666697 Z M44.3239485,20.4283979 L44.3239485,2.92842063 L65.7394141,11.6667426 L44.3239485,20.4283979 Z" id="Shape"></path>
            </g>
        </g>
    </g>
</svg>