<?xml version="1.0" encoding="UTF-8"?>
<svg width="28px" height="34px" viewBox="0 0 28 34" version="1.1" xmlns="http://www.w3.org/2000/svg" xmlns:xlink="http://www.w3.org/1999/xlink">
    <!-- Generator: Sketch 49.1 (51147) - http://www.bohemiancoding.com/sketch -->
    <title>Group 15</title>
    <desc>Created with Sketch.</desc>
    <defs></defs>
    <g id="Symbols" stroke="none" stroke-width="1" fill="none" fill-rule="evenodd">
        <g id="tit_Proteccion_Dskt" transform="translate(-27.000000, -8.000000)">
            <g id="Group-15" transform="translate(27.000000, 8.000000)">
                <path d="M13.9820989,3.82022472e-05 L13.9820989,7.25846517 L13.9820989,8.2517236 L13.9820989,24.5640831 L13.9820989,25.2899258 L13.9820989,33.9236337 C27.9641213,27.9640831 27.9641213,15.2809371 27.9641213,15.2809371 L27.9641213,5.99779101 L13.9820989,3.82022472e-05 Z" id="Fill-44" fill="#A7A8AA"></path>
                <path d="M13.9820989,3.82022472e-05 L13.9820989,7.25846517 L13.9820989,8.2517236 L13.9820989,24.5640831 L13.9820989,25.2899258 L13.9820989,33.9236337 C7.64044944e-05,27.9640831 7.64044944e-05,15.2809371 7.64044944e-05,15.2809371 L7.64044944e-05,5.99779101 L13.9820989,3.82022472e-05 Z" id="Fill-45" fill="#D9D9D6"></path>
                <path d="M12.8360315,21.2785753 L8.59558202,17.0381258 L10.2000764,15.4336315 L12.7978292,18.0313843 L13.9438966,16.8853169 L13.9438966,9.01565393 C9.5506382,9.01565393 5.95962697,12.6066652 5.95962697,16.9999236 C5.95962697,21.393182 9.5506382,24.9841933 13.9820989,24.9841933 L13.9820989,20.1325079 L12.8360315,21.2785753 Z" id="Fill-46" fill="#FFFFFF"></path>
                <path d="M13.9820989,9.01580674 L13.9820989,16.9236719 L17.7259191,13.1798517 L19.3304135,14.7843461 L13.9438966,20.1708629 L13.9438966,24.9843461 C17.5349079,24.9843461 20.5528854,22.6158067 21.5843461,19.3686157 C21.8135596,18.6045708 21.9281663,17.8023236 21.9281663,17.0000764 C21.9663685,12.5686157 18.3753573,9.01580674 13.9820989,9.01580674" id="Fill-47" fill="#F2F2F2"></path>
                <polygon id="Fill-48" fill="#A4CE4E" points="10.238164 15.4337079 8.59546742 17.0764045 12.8359169 21.2786517 13.9819843 20.1325843 13.9819843 16.9235955 12.8359169 18.0696629"></polygon>
                <polygon id="Fill-49" fill="#A4CE4E" points="19.3304135 14.7841933 17.7259191 13.1796989 13.9820989 16.9235191 13.9820989 20.1325079"></polygon>
            </g>
        </g>
    </g>
</svg>