<?xml version="1.0" encoding="UTF-8"?>
<svg width="13px" height="18px" viewBox="0 0 13 18" version="1.1" xmlns="http://www.w3.org/2000/svg" xmlns:xlink="http://www.w3.org/1999/xlink">
    <!-- Generator: Sketch 49.1 (51147) - http://www.bohemiancoding.com/sketch -->
    <title>Fill 323</title>
    <desc>Created with Sketch.</desc>
    <defs></defs>
    <g id="mobile" stroke="none" stroke-width="1" fill="none" fill-rule="evenodd">
        <g id="0034_" transform="translate(-270.000000, -320.000000)" fill="#CECCCF">
            <g id="Grandes-proyectos" transform="translate(28.000000, 250.000000)">
                <path d="M246.019739,72.0133027 L246.133427,71.51915 C246.211314,71.2114647 246.499907,71.0188099 246.804624,71.0716845 L249.948808,71.6153368 C250.253525,71.6682114 250.46505,71.9472094 250.442094,72.252926 L250.391536,72.7695785 L246.019739,72.0133027 Z M253.731941,73.3472618 L251.411722,72.945921 L251.469932,72.3474253 C251.536341,71.4775253 250.955876,70.7122496 250.119887,70.5676881 L246.975976,70.0237545 C246.139713,69.8791931 245.348269,70.4070955 245.131825,71.2626518 L244.999553,71.836679 L242.67906,71.4353381 C242.39812,71.3866822 242.131663,71.5818683 242.084658,71.8712725 C242.037379,72.1603954 242.227041,72.4346122 242.507982,72.4832681 L244.760426,72.8727965 L251.308692,74.0053821 L253.560862,74.3951918 C253.841803,74.4438477 254.108259,74.2486616 254.155538,73.9592574 C254.202544,73.6701345 254.012882,73.3959177 253.731941,73.3472618 Z M250.997416,85.1866765 L251.435224,77.9166977 C251.452988,77.6236373 251.236817,77.3716391 250.952324,77.353358 C250.673023,77.3347956 250.422417,77.5578252 250.404927,77.8506044 L249.966845,85.1205832 C249.949355,85.4136436 250.165526,85.6656418 250.450019,85.6839229 C250.460951,85.6844854 250.471609,85.6847667 250.482541,85.6847667 C250.752823,85.6847667 250.980199,85.4682057 250.997416,85.1866765 Z M245.789904,85.6839229 C246.074397,85.6656418 246.290841,85.4136436 246.273351,85.1205832 L245.834996,77.8506044 C245.817506,77.5578252 245.569906,77.3339519 245.287873,77.353358 C245.003106,77.3716391 244.786935,77.6236373 244.804698,77.9166977 L245.24278,85.1866765 C245.259724,85.4682057 245.4871,85.6847667 245.757382,85.6847667 C245.768314,85.6847667 245.778972,85.6844854 245.789904,85.6839229 Z M248.636203,85.1608017 L248.636203,77.8767604 C248.636203,77.5831376 248.405275,77.3452018 248.120235,77.3452018 C247.834922,77.3452018 247.603719,77.5831376 247.603719,77.8767604 L247.603719,85.1608017 C247.603719,85.4541433 247.834922,85.6917979 248.120235,85.6917979 C248.405275,85.6917979 248.636203,85.4541433 248.636203,85.1608017 Z M243.624639,75.9766491 C243.456566,75.9766491 243.301338,76.0469611 243.187924,76.1746477 C243.074236,76.3023343 243.019578,76.4674268 243.034609,76.6398319 L243.871418,86.3816992 C243.898474,86.6983844 244.152085,86.9374452 244.461175,86.9374452 L251.778748,86.9374452 C252.087837,86.9374452 252.341449,86.6983844 252.368505,86.3816992 L253.205314,76.6398319 C253.220345,76.4674268 253.165687,76.302053 253.051999,76.1743665 C252.938585,76.0469611 252.78363,75.9766491 252.615558,75.9766491 L243.624639,75.9766491 Z M251.778748,88 L244.461175,88 C243.613434,88 242.917641,87.3446922 242.84276,86.4753547 L242.006224,76.7332062 C241.966324,76.2671783 242.119639,75.8019941 242.426542,75.4571841 C242.733445,75.1120929 243.169887,74.9140943 243.624639,74.9140943 L252.615558,74.9140943 C253.070036,74.9140943 253.506751,75.1120929 253.813654,75.4569029 C254.120557,75.8019941 254.273872,76.2671783 254.233699,76.7332062 L253.397163,86.4753547 C253.322282,87.3446922 252.626762,88 251.778748,88 Z" id="Fill-323"></path>
            </g>
        </g>
    </g>
</svg>