<?xml version="1.0" encoding="UTF-8"?>
<svg width="9px" height="18px" viewBox="0 0 9 18" version="1.1" xmlns="http://www.w3.org/2000/svg" xmlns:xlink="http://www.w3.org/1999/xlink">
    <!-- Generator: Sketch 49.1 (51147) - http://www.bohemiancoding.com/sketch -->
    <title>Page 1</title>
    <desc>Created with Sketch.</desc>
    <defs>
        <polygon id="path-1" points="0 0 8.82985055 0 8.82985055 17.3999996 0 17.3999996"></polygon>
    </defs>
    <g id="mobile" stroke="none" stroke-width="1" fill="none" fill-rule="evenodd">
        <g id="007_Dskt" transform="translate(-1098.000000, -1209.000000)">
            <g id="Page-1" transform="translate(1098.000000, 1209.000000)">
                <mask id="mask-2" fill="white">
                    <use xlink:href="#path-1"></use>
                </mask>
                <g id="Clip-2"></g>
                <path d="M0.28193271,9.2672398 L2.1980038,9.2672398 L2.1980038,17.1193545 C2.1980038,17.2743267 2.32419688,17.3999996 2.47993651,17.3999996 L5.72870351,17.3999996 C5.88438676,17.3999996 6.01063622,17.2743267 6.01063622,17.1193545 L6.01063622,9.3041727 L8.2133201,9.3041727 C8.35654192,9.3041727 8.47703996,9.1972469 8.49339206,9.05557722 L8.82793341,6.16487599 C8.83712442,6.08534116 8.81175047,6.00569406 8.75835242,5.9460289 C8.70484159,5.88630761 8.62826866,5.85212503 8.54791784,5.85212503 L6.010749,5.85212503 L6.010749,4.0400554 C6.010749,3.49380767 6.30621448,3.2168109 6.88902578,3.2168109 L8.54791784,3.2168109 C8.70360109,3.2168109 8.82985055,3.09108187 8.82985055,2.93616574 L8.82985055,0.282721929 C8.82985055,0.127637417 8.70360109,0.00207677415 8.54791784,0.00207677415 L6.26172549,0.00207677415 C6.24559894,0.00129096771 6.20979349,0 6.15701569,0 C5.76033636,0 4.38151625,0.0774580628 3.2923538,1.07487094 C2.08556903,2.18016382 2.25331899,3.50357412 2.29340982,3.7330296 L2.29340982,5.8520689 L0.28193271,5.8520689 C0.126193081,5.8520689 0,5.97768568 0,6.13271406 L0,8.98653851 C0,9.1415669 0.126193081,9.2672398 0.28193271,9.2672398" id="Fill-1" fill="#0061A0" mask="url(#mask-2)"></path>
            </g>
        </g>
    </g>
</svg>