<?xml version="1.0" encoding="UTF-8"?>
<svg width="30px" height="26px" viewBox="0 0 30 26" version="1.1" xmlns="http://www.w3.org/2000/svg" xmlns:xlink="http://www.w3.org/1999/xlink">
    <!-- Generator: Sketch 49.1 (51147) - http://www.bohemiancoding.com/sketch -->
    <title>Page 1</title>
    <desc>Created with Sketch.</desc>
    <defs></defs>
    <g id="final-WS" stroke="none" stroke-width="1" fill="none" fill-rule="evenodd">
        <g id="018_Dskt" transform="translate(-60.000000, -53.000000)">
            <g id="humano" transform="translate(60.000000, 50.000000)">
                <g id="Page-1" transform="translate(0.000000, 3.000000)">
                    <path d="M8.82535714,7.02702703e-05 C12.0396429,7.02702703e-05 14.6453571,2.56352973 14.6453571,5.72569189 C14.6453571,8.88785405 12.0396429,11.4513135 8.82535714,11.4513135 C5.61107143,11.4513135 3.00535714,8.88785405 3.00535714,5.72569189 C3.00535714,2.56352973 5.61107143,7.02702703e-05 8.82535714,7.02702703e-05" id="Fill-1" fill="#A4CE4E"></path>
                    <path d="M0,25.8000108 L17.6510714,25.8000108 C17.2228571,21.6575784 16.34,17.5724162 15.0175,13.6169027 L2.63392857,13.6169027 L2.62821429,13.6344703 C1.30928571,17.5847135 0.427857143,21.6635514 0,25.8000108" id="Fill-3" fill="#A4CE4E"></path>
                    <path d="M21.8781429,25.8000108 C26.3470714,25.8003622 29.9699286,22.2366054 29.9702857,17.8404973 C29.9706429,13.4443892 26.3485,9.87992973 21.8795714,9.87957838 C17.4106429,9.87922703 13.7877857,13.4429838 13.7874286,17.8390919 L13.7874286,17.8401459 L13.7874286,25.8000108 L21.8781429,25.8000108 Z" id="Fill-5" fill="#0090DA"></path>
                    <polygon id="Fill-7" fill="#FFFFFF" points="20.2005357 22.2353757 16.82375 18.9126459 18.0205357 17.7352676 20.2005357 19.8809703 25.16125 15.0014027 26.3573214 16.1784297"></polygon>
                </g>
            </g>
        </g>
    </g>
</svg>