<?xml version="1.0" encoding="UTF-8"?>
<svg width="23px" height="27px" viewBox="0 0 23 27" version="1.1" xmlns="http://www.w3.org/2000/svg" xmlns:xlink="http://www.w3.org/1999/xlink">
    <!-- Generator: Sketch 49.1 (51147) - http://www.bohemiancoding.com/sketch -->
    <title>Group 15</title>
    <desc>Created with Sketch.</desc>
    <defs>
        <polygon id="path-1" points="0.091011236 0.0909505618 22.2370787 0.0909505618 22.2370787 10.9213483 0.091011236 10.9213483"></polygon>
    </defs>
    <g id="Symbols" stroke="none" stroke-width="1" fill="none" fill-rule="evenodd">
        <g id="tit_EDUCACION_Dskt" transform="translate(-30.000000, -12.000000)">
            <g id="Group-15" transform="translate(30.000000, 12.000000)">
                <g id="Group-31" transform="translate(0.000000, 16.017978)">
                    <mask id="mask-2" fill="white">
                        <use xlink:href="#path-1"></use>
                    </mask>
                    <g id="Clip-30"></g>
                    <path d="M18.0202247,10.8909506 L22.2370787,10.8909506 C21.6606742,7.55387191 20.6898876,3.85274831 19.0820225,0.0909505618 L13.9247191,0.0909505618 L8.43370787,0.0909505618 L3.24606742,0.0909505618 L3.24606742,0.12128764 C1.63820225,3.88308539 0.66741573,7.55387191 0.091011236,10.921591 L18.0202247,10.921591 L18.0202247,10.8909506 Z" id="Fill-29" fill="#1693D2" mask="url(#mask-2)"></path>
                </g>
                <path d="M17.1101124,8.85836629 C17.1101124,12.0437596 14.4404494,14.6530517 11.1640449,14.6530517 C7.88764045,14.6530517 5.21797753,12.0740966 5.21797753,8.85836629 C5.21797753,5.64263596 7.88764045,3.06398427 11.1640449,3.06398427 C14.4404494,3.09432135 17.1101124,5.67297303 17.1101124,8.85836629" id="Fill-32" fill="#D8DAD7"></path>
                <path d="M19.6280292,6.09781348 C19.6280292,6.40118427 19.3853326,6.6438809 19.0819618,6.6438809 C18.778591,6.6438809 18.5358944,6.40118427 18.5358944,6.09781348 C18.5358944,5.7944427 18.778591,5.55174607 19.0819618,5.55174607 C19.3853326,5.58208315 19.6280292,5.82477978 19.6280292,6.09781348" id="Fill-36" fill="#AECA3A"></path>
                <path d="M19.0820225,6.00671124 C17.9595506,6.9168236 17.9595506,8.34266629 19.0820225,9.25277865 C20.2044944,8.37300337 20.2044944,6.9168236 19.0820225,6.00671124" id="Fill-38" fill="#AECA3A"></path>
                <polygon id="Fill-40" fill="#1693D2" points="0.879775281 0.758426966 21.4786517 0.758426966 21.4786517 0 0.879775281 0"></polygon>
                <polygon id="Fill-42" fill="#00679E" points="6.40118427 5.39996966 11.1641056 5.39996966 6.40118427 0.758396629"></polygon>
                <polygon id="Fill-43" fill="#00679E" points="15.9269966 0.758457303 6.40115393 0.758457303 11.1640753 5.40003034 15.9269966 5.40003034"></polygon>
            </g>
        </g>
    </g>
</svg>