<?xml version="1.0" encoding="UTF-8"?>
<svg width="70px" height="70px" viewBox="0 0 70 70" version="1.1" xmlns="http://www.w3.org/2000/svg" xmlns:xlink="http://www.w3.org/1999/xlink">
    <!-- Generator: Sketch 49.1 (51147) - http://www.bohemiancoding.com/sketch -->
    <title>001-presentation</title>
    <desc>Created with Sketch.</desc>
    <defs></defs>
    <g id="mobile" stroke="none" stroke-width="1" fill="none" fill-rule="evenodd">
        <g id="009_Dskt" transform="translate(-706.000000, -162.000000)" fill="#CECCCF" fill-rule="nonzero">
            <g id="001-presentation" transform="translate(706.000000, 162.000000)">
                <path d="M19.2859874,14.9247308 C17.8942999,13.5151282 15.9766714,12.7216965 13.9752511,12.7273022 L13.5943226,12.7273022 C11.594912,12.7233631 9.68006631,13.5166433 8.28977022,14.9247308 C6.98187463,16.2425213 6.28742227,18.0310379 6.37028658,19.86743 L6.51498992,23.1302418 C6.7342093,26.8639311 9.92216613,29.7619188 13.7377892,29.6958626 L13.8317845,29.6958626 C17.6474075,29.7619188 20.8353644,26.8639311 21.0545838,23.1302418 L21.205471,19.86743 C21.2883353,18.0310379 20.5938829,16.2425213 19.2859874,14.9247308 Z M18.5834959,23.0296425 C18.4159121,25.4632674 16.3198781,27.3345057 13.8317845,27.2717826 L13.7377892,27.2717826 C11.2496956,27.3345057 9.15366153,25.4632674 8.98607775,23.0296425 L8.94279042,22.0394058 C11.3004036,21.9365339 13.5641761,21.1040139 15.4086799,19.6613832 C16.1693,20.7637336 17.3174963,21.5529232 18.6342039,21.8782045 L18.5834959,23.0296425 Z M17.0325729,17.3003293 C16.963777,16.7833942 16.5652244,16.367513 16.0431484,16.2676712 C15.5229275,16.1622237 14.9926578,16.3970564 14.7296873,16.8494504 C14.7136091,16.8749032 13.1787643,19.2541378 8.84755831,19.6177498 C8.83689108,18.4947947 9.27764879,17.4128975 10.0744448,16.6058303 C10.9978561,15.673317 12.2683391,15.1483522 13.5943226,15.1513823 L13.9752511,15.1513823 C15.3012346,15.1483522 16.5717175,15.673317 17.4951289,16.6058303 C18.2166359,17.3425992 18.6448712,18.3084436 18.7022269,19.3280722 C17.8463746,18.9532489 17.2255107,18.19936 17.0325729,17.3003293 Z" id="Shape"></path>
                <path d="M63.8314448,42.5004884 C62.4397594,41.0908858 60.5221338,40.2974541 58.5207165,40.3030598 L58.1397886,40.3030598 C56.140381,40.2991207 54.2255382,41.0924009 52.8352442,42.5004884 C51.5273505,43.8182789 50.8327446,45.6067955 50.9157634,47.4431876 L51.0604665,50.7059994 C51.2796856,54.4396887 54.4676376,57.3376764 58.2832549,57.2716202 L58.3772501,57.2716202 C62.1928674,57.3376764 65.3808195,54.4396887 65.6000385,50.7059994 L65.7509256,47.4431876 C65.8337897,45.6067955 65.1393384,43.8182789 63.8314448,42.5004884 Z M63.2773679,47.3450124 L63.1289544,50.6054001 C62.9613709,53.0390249 60.8653399,54.9102632 58.3772501,54.8475402 L58.2832549,54.8475402 C55.7951651,54.9102632 53.6991342,53.0390249 53.5315506,50.6054001 L53.3831372,47.3389522 C53.3353666,46.1646369 53.7826167,45.0228952 54.619916,44.1815879 C55.543326,43.2490746 56.8138071,42.7241098 58.1397886,42.7271399 L58.5207165,42.7271399 C59.846698,42.7241098 61.117179,43.2490746 62.040589,44.1815879 C62.8794343,45.0244102 63.326839,46.1687275 63.2773679,47.3450124 Z" id="Shape"></path>
                <path d="M35.1019548,17.8810513 C33.8827168,16.6659122 31.9479007,16.6659122 30.7286627,17.8810513 L18.0431326,30.9518098 C17.8297943,31.1716266 17.5403247,31.2951455 17.23864,31.2948528 L5.68144486,31.2948528 C2.5452873,31.2986579 0.00369293916,33.9174342 0,37.1488292 L0,53.539963 C0,55.4798244 1.52617813,57.0523488 3.40886692,57.0523488 C3.79591535,57.0523488 4.18012305,56.9845891 4.54515589,56.8521429 L4.54515589,58.2231441 C4.54515589,58.8697158 5.05392927,59.3939394 5.68144486,59.3939394 L19.3169125,59.3939394 C19.9444281,59.3939394 20.4532015,58.8697158 20.4532015,58.2231441 L20.4532015,39.2398695 C20.4530595,38.9436583 20.5618591,38.658277 20.7577269,38.4413872 L35.1760977,22.463544 C36.3838308,21.1771327 36.3505944,19.1254604 35.1019548,17.8810513 Z M33.553335,20.8263332 C33.549216,20.830431 33.5450969,20.8345288 33.5409779,20.8384802 L19.0896547,36.8479348 C18.5044659,37.4984579 18.1796293,38.3528458 18.1806235,39.2398695 L18.1806235,57.0523488 L6.81773383,57.0523488 L6.81773383,39.4904197 C6.81773383,38.843848 6.30896044,38.3196244 5.68144486,38.3196244 C5.05392927,38.3196244 4.54515589,38.843848 4.54515589,39.4904197 L4.54515589,53.539963 C4.54515589,54.1865347 4.0363825,54.7107583 3.40886692,54.7107583 C2.78135133,54.7107583 2.27257794,54.1865347 2.27257794,53.539963 L2.27257794,37.1488292 C2.27257794,35.2089677 3.79875607,33.6364433 5.68144486,33.6364433 L17.23864,33.6364433 C18.1435521,33.6393703 19.011961,33.2688136 19.6498452,32.6073143 L32.3353753,19.5365558 C32.6812332,19.1984887 33.2235271,19.1984887 33.5693851,19.5365558 C33.9105559,19.8973071 33.9034541,20.4748019 33.553335,20.8263332 Z" id="Shape"></path>
                <path d="M11.6666667,33.9393939 C11.080947,33.9393939 10.6060606,34.4821212 10.6060606,35.1515152 L10.6060606,49.6969697 C10.6060606,50.3663636 11.080947,50.9090909 11.6666667,50.9090909 C12.2523864,50.9090909 12.7272727,50.3663636 12.7272727,49.6969697 L12.7272727,35.1515152 C12.7272727,34.4821212 12.2523864,33.9393939 11.6666667,33.9393939 Z" id="Shape"></path>
                <path d="M38.3760774,42.5004754 C36.9852063,41.0923867 35.0695685,40.2991058 33.0693309,40.3030449 L32.6882449,40.3030449 C30.6880073,40.2991058 28.7723695,41.0923867 27.3814983,42.5004754 C26.0730617,43.8182671 25.3781675,45.6067852 25.4612207,47.443179 L25.6059839,50.7059936 C25.825294,54.4396862 29.0145695,57.3376765 32.8317708,57.2716202 L32.925805,57.2716202 C36.7430063,57.3376765 39.9322818,54.4396862 40.1515918,50.7059936 L40.296355,47.443179 C40.3794083,45.6067852 39.684514,43.8182671 38.3760774,42.5004754 Z M37.827957,47.3450037 L37.6794819,50.6053942 C37.5118288,53.0390212 35.4149277,54.9102612 32.925805,54.847538 L32.8317708,54.847538 C30.342648,54.9102612 28.245747,53.0390212 28.0780939,50.6053942 L27.9296188,47.3389435 C27.8818284,46.1646271 28.3292642,45.0228844 29.1669111,44.1815764 C30.0907044,43.2490623 31.3617129,42.724097 32.6882449,42.7271271 L33.0693309,42.7271271 C34.3958629,42.724097 35.6668714,43.2490623 36.5906647,44.1815764 C37.4298582,45.0243995 37.8774487,46.1687178 37.827957,47.3450037 Z" id="Shape"></path>
                <path d="M38.9069545,59.3939394 L26.8506212,59.3939394 C23.7379545,59.3968561 21.2153295,61.6901515 21.2121212,64.5198485 L21.2121212,68.9393939 C21.2121212,69.5251136 21.7344962,70 22.3787879,70 C23.0230795,70 23.5454545,69.5251136 23.5454545,68.9393939 L23.5454545,64.5198485 C23.5473504,62.8610606 25.0261004,61.516875 26.8506212,61.5151515 L38.9069545,61.5151515 C40.7316212,61.516875 42.2102254,62.8610606 42.2121212,64.5198485 L42.2121212,68.9393939 C42.2121212,69.5251136 42.7344962,70 43.3787879,70 C44.0230795,70 44.5454545,69.5251136 44.5454545,68.9393939 L44.5454545,64.5198485 C44.5422462,61.6901515 42.0196212,59.3968561 38.9069545,59.3939394 Z" id="Shape"></path>
                <path d="M64.3615,59.3939394 L52.3051667,59.3939394 C49.1925,59.3968561 46.669875,61.6901515 46.6666667,64.5198485 L46.6666667,68.9393939 C46.6666667,69.5251136 47.1890417,70 47.8333333,70 C48.477625,70 49,69.5251136 49,68.9393939 L49,64.5198485 C49.0018958,62.8610606 50.4806458,61.516875 52.3051667,61.5151515 L64.3615,61.5151515 C66.1861667,61.516875 67.6647708,62.8610606 67.6666667,64.5198485 L67.6666667,68.9393939 C67.6666667,69.5251136 68.1890417,70 68.8333333,70 C69.477625,70 70,69.5251136 70,68.9393939 L70,64.5198485 C69.9967917,61.6901515 67.4741667,59.3968561 64.3615,59.3939394 Z" id="Shape"></path>
                <path d="M66.489575,0 L24.7225462,0 C22.7685097,0.0185123967 21.1983788,1.57109504 21.2122119,3.47107438 L21.2122119,20.8264463 C21.2122119,21.4654132 21.7450093,21.9834711 22.4021558,21.9834711 C23.0593022,21.9834711 23.5920996,21.4654132 23.5920996,20.8264463 L23.5920996,6.94214876 L67.6200216,6.94214876 L67.6200216,34.7107438 C67.6353421,35.3333678 67.1299135,35.8507025 66.489575,35.8677686 L25.8827415,35.8677686 C25.225595,35.8677686 24.6927976,36.3858264 24.6927976,37.0247934 C24.6927976,37.6637603 25.225595,38.1818182 25.8827415,38.1818182 L66.489575,38.1818182 C68.4436115,38.1633058 70.0137424,36.6107231 69.9999093,34.7107438 L69.9999093,3.47107438 C70.0137424,1.57109504 68.4436115,0.0185123967 66.489575,0 Z M67.6203609,4.62809917 L23.5917603,4.62809917 L23.5920996,3.47107438 C23.5767791,2.84845041 24.0822077,2.3311157 24.7225462,2.31404959 L66.489575,2.31404959 C67.1299135,2.3311157 67.6353421,2.84845041 67.6200216,3.47107438 L67.6203609,4.62809917 Z" id="Shape"></path>
                <path d="M64.6969697,14.8484848 C64.11125,14.8484848 63.6363636,15.3745128 63.6363636,16.02331 L63.6363636,32.7645688 C63.6363636,33.413366 64.11125,33.9393939 64.6969697,33.9393939 C65.2826894,33.9393939 65.7575758,33.413366 65.7575758,32.7645688 L65.7575758,16.02331 C65.7575758,15.3745128 65.2826894,14.8484848 64.6969697,14.8484848 Z" id="Shape"></path>
                <path d="M58.3333333,21.2121212 C57.7476136,21.2121212 57.2727273,21.7819848 57.2727273,22.4848485 L57.2727273,32.6666667 C57.2727273,33.3695303 57.7476136,33.9393939 58.3333333,33.9393939 C58.919053,33.9393939 59.3939394,33.3695303 59.3939394,32.6666667 L59.3939394,22.4848485 C59.3939394,21.7819848 58.919053,21.2121212 58.3333333,21.2121212 Z" id="Shape"></path>
                <path d="M54.0909091,19.0909091 C53.5051894,19.0909091 53.030303,19.6449432 53.030303,20.3282828 L53.030303,32.7020202 C53.030303,33.3853598 53.5051894,33.9393939 54.0909091,33.9393939 C54.6766288,33.9393939 55.1515152,33.3853598 55.1515152,32.7020202 L55.1515152,20.3282828 C55.1515152,19.6449432 54.6766288,19.0909091 54.0909091,19.0909091 Z" id="Shape"></path>
                <path d="M49.8484848,27.5757576 C49.2627652,27.5757576 48.7878788,28.0506439 48.7878788,28.6363636 L48.7878788,32.8787879 C48.7878788,33.4645076 49.2627652,33.9393939 49.8484848,33.9393939 C50.4342045,33.9393939 50.9090909,33.4645076 50.9090909,32.8787879 L50.9090909,28.6363636 C50.9090909,28.0506439 50.4342045,27.5757576 49.8484848,27.5757576 Z" id="Shape"></path>
                <path d="M65.2329116,8.6855646 C64.6914222,8.31986116 63.9596161,8.46781296 63.5984268,9.01606984 L59.5752608,15.1250474 L55.8584871,12.3032247 C55.3398298,11.9051569 54.6006585,12.0083652 54.2075042,12.5335046 C54.1627238,12.5933117 54.1236883,12.6571457 54.0908395,12.7244101 L49.5020263,22.0179308 L45.0169151,25.4279812 C44.4961956,25.8233645 44.3907259,26.5711773 44.7812287,27.0984048 C45.1717316,27.6256322 45.9103137,27.73242 46.4310332,27.3370367 L51.1447601,23.7575577 C51.2932425,23.6468921 51.4143264,23.5026689 51.4982897,23.3363723 L55.5791988,15.070162 L59.158096,17.7917593 C59.6786682,18.1871426 60.4173976,18.0805039 60.8079004,17.5532765 C60.8210105,17.5356774 60.8335313,17.5176308 60.8456102,17.4994351 L65.5593372,10.3404771 C65.9205265,9.79222021 65.774401,9.05126805 65.2329116,8.6855646 Z" id="Shape"></path>
                <path d="M43.3333333,8.48484848 L28.7878788,8.48484848 C28.1184848,8.48484848 27.5757576,8.95973485 27.5757576,9.54545455 C27.5757576,10.1311742 28.1184848,10.6060606 28.7878788,10.6060606 L43.3333333,10.6060606 C44.0027273,10.6060606 44.5454545,10.1311742 44.5454545,9.54545455 C44.5454545,8.95973485 44.0027273,8.48484848 43.3333333,8.48484848 Z" id="Shape"></path>
            </g>
        </g>
    </g>
</svg>