<?xml version="1.0" encoding="UTF-8"?>
<svg width="12px" height="18px" viewBox="0 0 12 18" version="1.1" xmlns="http://www.w3.org/2000/svg" xmlns:xlink="http://www.w3.org/1999/xlink">
    <!-- Generator: Sketch 49.1 (51147) - http://www.bohemiancoding.com/sketch -->
    <title>Fill 323</title>
    <desc>Created with Sketch.</desc>
    <defs></defs>
    <g id="final-WS" stroke="none" stroke-width="1" fill="none" fill-rule="evenodd">
        <g id="007_Dskt-dependientes" transform="translate(-1186.000000, -1167.000000)" fill="#1697F3">
            <path d="M1190,1169.11371 L1190.10279,1168.5346 C1190.17321,1168.17402 1190.43414,1167.94824 1190.70965,1168.01021 L1193.55246,1168.64732 C1193.82797,1168.70929 1194.01922,1169.03625 1193.99846,1169.39453 L1193.95275,1170 L1190,1169.11371 Z M1197.57229,1170.04115 L1195.26844,1169.67651 L1195.32624,1169.13275 C1195.39218,1168.3424 1194.81581,1167.64711 1193.98572,1167.51577 L1190.86399,1167.02158 C1190.03362,1166.89024 1189.24776,1167.36987 1189.03285,1168.14718 L1188.90151,1168.66871 L1186.59739,1168.30407 C1186.31843,1168.25987 1186.05385,1168.4372 1186.00718,1168.70014 C1185.96023,1168.96282 1186.14856,1169.21196 1186.42751,1169.25617 L1188.66407,1169.61007 L1195.16614,1170.63908 L1197.40242,1170.99324 C1197.68138,1171.03745 1197.94595,1170.86011 1197.9929,1170.59718 C1198.03957,1170.33449 1197.85125,1170.08535 1197.57229,1170.04115 Z M1194.70156,1181.52178 L1194.99931,1174.5419 C1195.01139,1174.26053 1194.86437,1174.01859 1194.67089,1174.00104 C1194.48094,1173.98321 1194.3105,1174.19735 1194.29861,1174.47844 L1194.00067,1181.45833 C1193.98878,1181.7397 1194.13579,1181.98164 1194.32928,1181.99919 C1194.33671,1181.99973 1194.34396,1182 1194.35139,1182 C1194.53521,1182 1194.68985,1181.79208 1194.70156,1181.52178 Z M1189.6706,1181.99919 C1189.86405,1181.98164 1190.01122,1181.7397 1189.99933,1181.45834 L1189.70126,1174.47853 C1189.68937,1174.19743 1189.52101,1173.98249 1189.32924,1174.00113 C1189.1356,1174.01868 1188.98862,1174.26062 1189.00069,1174.54198 L1189.29857,1181.52179 C1189.3101,1181.79208 1189.4647,1182 1189.64849,1182 C1189.65592,1182 1189.66317,1181.99973 1189.6706,1181.99919 Z M1192,1181.49105 L1192,1174.50949 C1192,1174.22806 1191.77634,1174 1191.50026,1174 C1191.22393,1174 1191,1174.22806 1191,1174.50949 L1191,1181.49105 C1191,1181.77221 1191.22393,1182 1191.50026,1182 C1191.77634,1182 1192,1181.77221 1192,1181.49105 Z M1187.58225,1173 C1187.41708,1173 1187.26453,1173.07056 1187.15307,1173.19871 C1187.04135,1173.32685 1186.98763,1173.49253 1187.0024,1173.66555 L1187.82477,1183.44227 C1187.85136,1183.76008 1188.1006,1184 1188.40435,1184 L1195.59565,1184 C1195.8994,1184 1196.14864,1183.76008 1196.17523,1183.44227 L1196.9976,1173.66555 C1197.01237,1173.49253 1196.95865,1173.32657 1196.84693,1173.19842 C1196.73547,1173.07056 1196.58319,1173 1196.41802,1173 L1187.58225,1173 Z M1188.41292,1185 C1187.5818,1185 1186.89965,1184.34899 1186.82624,1183.48536 L1186.0061,1173.80717 C1185.96698,1173.3442 1186.11729,1172.88207 1186.41818,1172.53952 C1186.71906,1172.1967 1187.14695,1172 1187.59278,1172 L1196.40741,1172 C1196.85298,1172 1197.28113,1172.1967 1197.58201,1172.53925 C1197.8829,1172.88207 1198.03321,1173.3442 1197.99382,1173.80717 L1197.17369,1183.48536 C1197.10028,1184.34899 1196.41839,1185 1195.58701,1185 L1188.41292,1185 Z" id="Fill-323"></path>
        </g>
    </g>
</svg>