<?xml version="1.0" encoding="UTF-8" standalone="no"?>
<svg width="38px" height="38px" viewBox="0 0 38 38" version="1.1" xmlns="http://www.w3.org/2000/svg" xmlns:xlink="http://www.w3.org/1999/xlink">
    <!-- Generator: Sketch 46.2 (44496) - http://www.bohemiancoding.com/sketch -->
    <title>if_new-24_103173</title>
    <desc>Created with Sketch.</desc>
    <defs></defs>
    <g id="Symbols" stroke="none" stroke-width="1" fill="none" fill-rule="evenodd">
        <g id="Nota_Desktop" transform="translate(-11.000000, -11.000000)" stroke="#1697F3" fill-rule="nonzero" fill="#FFFFFF">
            <g id="if_new-24_103173" transform="translate(12.000000, 12.000000)">
                <path d="M33.7663636,8.78072727 C33.0021818,7.51745455 32.0596364,6.28036364 30.906,5.13327273 C29.7392727,3.97472727 28.4809091,3.02563636 27.1930909,2.26309091 L29.4545455,0 C29.4545455,0 32.7272727,0 34.3636364,1.63636364 C36,3.27272727 36,6.54545455 36,6.54545455 L33.7663636,8.78072727 Z M14.7272727,27.8181818 L8.18181818,27.8181818 L8.18181818,21.2727273 L8.96727273,20.4872727 C10.2976364,21.1172727 11.6198182,22.0025455 12.8094545,23.1905455 C14.0007273,24.3834545 14.8843636,25.7023636 15.5127273,27.0327273 L14.7272727,27.8181818 Z M31.8763636,10.6690909 L17.4010909,25.1427273 C16.6369091,23.8810909 15.6943636,22.6407273 14.5407273,21.4952727 C13.3756364,20.3350909 12.1156364,19.3876364 10.8278182,18.6250909 L25.3309091,4.12363636 C26.6612727,4.75036364 27.9834545,5.63563636 29.1730909,6.82527273 C30.366,8.01654545 31.2496364,9.33872727 31.8763636,10.6690909 Z M4.90909091,4.90909091 L4.90909091,31.0909091 L31.0909091,31.0909091 L31.0909091,19.6363636 L36,14.6650909 L36,32.7272727 C36,34.5354545 34.5338182,36 32.7272727,36 L3.27272727,36 C1.46618182,36 0,34.5354545 0,32.7272727 L0,3.27272727 C0,1.46618182 1.46618182,0 3.27272727,0 L21.2890909,0 L16.3783636,4.90909091 L4.90909091,4.90909091 Z" id="Shape"></path>
            </g>
        </g>
    </g>
</svg>