<?xml version="1.0" encoding="UTF-8"?>
<svg width="17px" height="15px" viewBox="0 0 17 15" version="1.1" xmlns="http://www.w3.org/2000/svg" xmlns:xlink="http://www.w3.org/1999/xlink">
    <!-- Generator: Sketch 49.1 (51147) - http://www.bohemiancoding.com/sketch -->
    <title>Group 10</title>
    <desc>Created with Sketch.</desc>
    <defs></defs>
    <g id="final-WS" stroke="none" stroke-width="1" fill="none" fill-rule="evenodd">
        <g id="014_Dskt" transform="translate(-796.000000, -500.000000)" fill="#FFD02D">
            <g id="fila-6" transform="translate(784.000000, 487.000000)">
                <g id="Group-10" transform="translate(12.000000, 13.000000)">
                    <path d="M4.79982517,4.9546371 C5.10693627,4.64213553 5.26048951,4.26411512 5.26048951,3.82056452 C5.26048951,3.37701391 5.10693627,2.9989935 4.79982517,2.68649194 C4.49271408,2.37399037 4.1212143,2.21774194 3.68531469,2.21774194 C3.24941507,2.21774194 2.87791529,2.37399037 2.5708042,2.68649194 C2.2636931,2.9989935 2.11013986,3.37701391 2.11013986,3.82056452 C2.11013986,4.26411512 2.2636931,4.64213553 2.5708042,4.9546371 C2.87791529,5.26713866 3.24941507,5.4233871 3.68531469,5.4233871 C4.1212143,5.4233871 4.49271408,5.26713866 4.79982517,4.9546371 Z M6.29574592,6.47177419 C5.57915337,7.20430474 4.70901833,7.57056452 3.68531469,7.57056452 C2.66821558,7.57056452 1.79973165,7.20430474 1.07983683,6.47177419 C0.35994201,5.73924365 0,4.85551593 0,3.82056452 C0,2.7856131 0.35994201,1.90188538 1.07983683,1.16935484 C1.79973165,0.436824294 2.66821558,0.0705645161 3.68531469,0.0705645161 C4.70241379,0.0705645161 5.57089772,0.436824294 6.29079254,1.16935484 C7.01068736,1.90188538 7.37062937,2.7856131 7.37062937,3.82056452 C7.37062937,4.85551593 7.01233847,5.73924365 6.29574592,6.47177419 Z M14.4291958,10.0252016 C14.1220847,9.71270005 13.7505849,9.55645161 13.3146853,9.55645161 C12.8787857,9.55645161 12.5072859,9.71270005 12.2001748,10.0252016 C11.8930637,10.3377032 11.7395105,10.7157236 11.7395105,11.1592742 C11.7395105,11.6028248 11.8930637,11.9808452 12.2001748,12.2933468 C12.5072859,12.6058483 12.8787857,12.7620968 13.3146853,12.7620968 C13.7505849,12.7620968 14.1220847,12.6058483 14.4291958,12.2933468 C14.7363069,11.9808452 14.8898601,11.6028248 14.8898601,11.1592742 C14.8898601,10.7157236 14.7363069,10.3377032 14.4291958,10.0252016 Z M15.9201632,13.8104839 C15.2002684,14.5430144 14.3317844,14.9092742 13.3146853,14.9092742 C12.2975862,14.9092742 11.4291023,14.5430144 10.7092075,13.8104839 C9.98931264,13.0779533 9.62937063,12.1942256 9.62937063,11.1592742 C9.62937063,10.1176023 9.98931264,9.23219451 10.7092075,8.50302419 C11.4291023,7.77385388 12.2975862,7.40927419 13.3146853,7.40927419 C14.3317844,7.40927419 15.2002684,7.77553397 15.9201632,8.50806452 C16.640058,9.24059506 17,10.1243228 17,11.1592742 C17,12.1942256 16.640058,13.0779533 15.9201632,13.8104839 Z M11.7395105,0 L13.245338,0 L5.24067599,15 L3.70512821,15 L11.7395105,0 Z" id="%"></path>
                </g>
            </g>
        </g>
    </g>
</svg>