<?xml version="1.0" encoding="UTF-8"?>
<svg width="26px" height="26px" viewBox="0 0 26 26" version="1.1" xmlns="http://www.w3.org/2000/svg" xmlns:xlink="http://www.w3.org/1999/xlink">
    <!-- Generator: Sketch 49.1 (51147) - http://www.bohemiancoding.com/sketch -->
    <title>if_new-24_103173</title>
    <desc>Created with Sketch.</desc>
    <defs></defs>
    <g id="mobile" stroke="none" stroke-width="1" fill="none" fill-rule="evenodd">
        <g id="0035_" transform="translate(-30.000000, -78.000000)" fill="#CECCCF" fill-rule="nonzero">
            <g id="if_new-24_103173" transform="translate(30.000000, 78.000000)">
                <path d="M24.3868182,6.34163636 C23.8349091,5.42927273 23.1541818,4.53581818 22.321,3.70736364 C21.4783636,2.87063636 20.5695455,2.18518182 19.6394545,1.63445455 L21.2727273,0 C21.2727273,0 23.6363636,0 24.8181818,1.18181818 C26,2.36363636 26,4.72727273 26,4.72727273 L24.3868182,6.34163636 Z M10.6363636,20.0909091 L5.90909091,20.0909091 L5.90909091,15.3636364 L6.47636364,14.7963636 C7.43718182,15.2513636 8.39209091,15.8907273 9.25127273,16.7487273 C10.1116364,17.6102727 10.7498182,18.5628182 11.2036364,19.5236364 L10.6363636,20.0909091 Z M23.0218182,7.70545455 L12.5674545,18.1586364 C12.0155455,17.2474545 11.3348182,16.3516364 10.5016364,15.5243636 C9.66018182,14.6864545 8.75018182,14.0021818 7.82009091,13.4514545 L18.2945455,2.97818182 C19.2553636,3.43081818 20.2102727,4.07018182 21.0694545,4.92936364 C21.931,5.78972727 22.5691818,6.74463636 23.0218182,7.70545455 Z M3.54545455,3.54545455 L3.54545455,22.4545455 L22.4545455,22.4545455 L22.4545455,14.1818182 L26,10.5914545 L26,23.6363636 C26,24.9422727 24.9410909,26 23.6363636,26 L2.36363636,26 C1.05890909,26 0,24.9422727 0,23.6363636 L0,2.36363636 C0,1.05890909 1.05890909,0 2.36363636,0 L15.3754545,0 L11.8288182,3.54545455 L3.54545455,3.54545455 Z" id="Shape"></path>
            </g>
        </g>
    </g>
</svg>