<?xml version="1.0" encoding="UTF-8"?>
<svg width="14px" height="13px" viewBox="0 0 14 13" version="1.1" xmlns="http://www.w3.org/2000/svg" xmlns:xlink="http://www.w3.org/1999/xlink">
    <!-- Generator: Sketch 49.1 (51147) - http://www.bohemiancoding.com/sketch -->
    <title>Shape</title>
    <desc>Created with Sketch.</desc>
    <defs></defs>
    <g id="final-WS" stroke="none" stroke-width="1" fill="none" fill-rule="evenodd">
        <g id="0019_" transform="translate(-17.000000, -479.000000)" fill="#767676">
            <path d="M29.2127784,479.860255 L30.4617915,480.812663 C30.478565,480.830664 30.4961568,480.851119 30.5129303,480.876484 C30.5297038,480.901849 30.5387042,480.927623 30.5387042,480.953397 C30.5477047,480.987762 30.5477047,481.019673 30.5387042,481.050356 C30.5297038,481.081039 30.5170214,481.108041 30.5002479,481.133405 L22.3102731,491.927366 C22.2922722,491.95314 22.2693621,491.971959 22.2399061,491.98505 C22.2092229,491.997733 22.1773123,492.007961 22.1425379,492.016961 L22.1298555,492.016961 C22.0954903,492.016961 22.0660343,492.010415 22.0390331,491.997733 C22.0120318,491.98505 21.9915763,491.969504 21.9752119,491.95314 L17.5183666,487.497522 C17.5003658,487.471748 17.486456,487.446383 17.4737736,487.420609 C17.4610912,487.394835 17.4545455,487.36947 17.4545455,487.343696 C17.4545455,487.309331 17.4610912,487.279875 17.4737736,487.252874 C17.486456,487.225873 17.5020022,487.205417 17.5183666,487.189053 L18.6254185,486.068909 C18.6687842,486.025544 18.7223776,486.005088 18.7866079,486.005088 C18.8508382,486.005088 18.9044316,486.026771 18.9477973,486.068909 L21.9482106,489.069323 L28.8903997,479.911803 C28.9247649,479.860664 28.973449,479.829981 29.0389067,479.82098 C29.1043643,479.81198 29.1616397,479.824662 29.2127784,479.859437 L29.2127784,479.860255 Z" id="Shape"></path>
        </g>
    </g>
</svg>